<svg xmlns="http://www.w3.org/2000/svg" viewBox="0 0 899.1 145" enable-background="new 0 0 899.1 145"><path d="M592.7 78.7c2.4 4.7 3.1 11.2 1.5 16.5-1.6 6.3-6.9 12.6-13 15.2-6.9 3.4-16.7 2.5-22.9-1.9-8.6-5.9-12.1-16-9.5-26 1.6-5.9 6.3-11.9 12.1-14.7 3.2-1.6 6.8-2.5 10.7-2.5 8.9.1 17.3 5.2 21.1 13.4zm-20.6-12.2c.1.9.1 2.2 0 3.2 0-.1 0-.2.1-.3.2-.1.3 0 .4.2 0 .2.1.4-.1.5l.3-.1c2.7.2 5.2 1 7.4 2.3v-.1c.5-.2 1-.5 1.5-.1.6-.2.7.5 1.1.6.6.3 1.2.9 1.2 1.6l.5.6c.4-.8 1.1-1.4 1.8-2.1l.4-.2c-3.5-3.4-7.7-5.2-12.4-5.9-.7-.1-1.5 0-2.2-.2zm-1.3.1c-4.7.2-8.9 1.8-12.6 4.5-.7.5-1.3 1.2-2.1 1.7h.1c.9.7 1.8 1.7 2.6 2.5l.1-.2c3.4-3.1 7.4-4.8 12-5l-.1-.3v-3.1999999999999997zm4 1.8l-1.7.7c-.1-.1-.4-.1-.5.1-.1.1 0 .1 0 .2.6.8 1.7.4 2.5.2.6.2 1.1 0 1.5-.4v-.1c-.4-.6-1.1-.7-1.8-.7zm-2.7 2.9l.1.2c0 1.1 0 2.2-.1 3.3.4-.2.9 0 1.3 0 2.3.4 4.5 1.1 6.3 2.5-.2-.2-.5-.5-.5-.8 0 0 .1-.1.1 0 0-.4-.4-.6-.4-.9.1-.1.1-.1.3-.1.4.4.7.8 1 1.2.3-.1.5.1.7.2.3.2.1.6.4.9 0 .7.9 1.1.8 1.8 0 .2.2 0 .3.1l.7.9c-.1.2 0 .4.1.5l.8-.2c.5.3-.1.6 0 .8.2 0 .4-.1.5 0 .1.3-.2.4-.3.6 0 .3.2.2.4.3.2 0 .3.2.3.4.6.6-.2 1.3.1 1.9.2.4 0 .8-.3 1.1 0 .5-.5.8-.6 1.3l-.6.1c-.3.3.3.7 0 .9h1.3l-.1-.1c-.2-.5-.1-1.2.2-1.7.2-.4.2-.9.6-1.3.1 0 .2-.2.3 0 0 .4 0 .9-.2 1.2.4.5.3 1.2.4 1.9 1.2-.1 2.3-.1 3.4-.1l-.1-.2c-.2-2.2-.6-4.2-1.5-6.1-.2 0-.4.2-.7.1-.1 0-.2-.1-.1-.2l-1.3-1.4c-.6.1-.9-.6-1.4-.7-.5-.2-.2-1-.8-.8-.3-.1-.7-.4-.7-.8 0-.6-.1-1.3-.7-1.7-.4-.2-.6.4-1 .3-.2-.1-.1-.4-.2-.6-.1-.2-.3-.3-.2-.5.5-.7-.7-.7-.4-1.4-.1-.5-.6-.7-.9-1.1-1.8-.8-3.6-1.4-5.7-1.6-.7-.1-1.2 0-1.6-.2zm10.6 0c-.2.2-.5-.2-.7.1 0 .1 0 .2.1.3.5.2.5.9 1.2.7.2-.2-.1-.4-.1-.7-.1-.2-.3-.3-.5-.4zm-21 3.1c-.7.5-1.4 1.2-2.1 1.6.9.6 1.6 1.5 2.4 2.2l.1.2c2-1.9 4.4-3 7-3.6.6-.1 1.2-.3 1.8-.1 0-1.1-.1-2.3 0-3.4-3.5.3-6.5 1.3-9.2 3.1zm26-1c-.6.9-1.5 1.7-2.3 2.5l-.4.1.5.5c.9.5 1.1 1.4 1.8 1.9.4.9 1.4 1.6 1.4 2.6 1 2.2 1.7 4.6 1.8 7.3l-.1.1c.1 0 .2 0 .3-.1l3.4-.1c-.2-.3-.1-.8-.2-1.2-.5-5.2-2.7-9.7-6.2-13.6zm-32.2.1c-3.3 3.7-5.4 8-6 12.8-.1.7 0 1.4-.2 2.1 1.2-.1 2.4-.1 3.6 0l-.1-.5c.2-3.7 1.4-7.1 3.5-10 .5-.6.9-1.3 1.6-1.8-.8-.7-1.6-1.5-2.4-2.3v-.3zm15.4 2.4l-.2.1c-3 .2-5.6 1.5-7.8 3.3.9.6 1.7 1.6 2.5 2.3l.2-.3c1.1-.8 2.3-1.5 3.6-1.9.6-.1 1.2-.3 1.8-.2-.3-.9-.3-2.2-.1-3.3zm1.2 0l.1.3v3.2l.3-.1c1.9.3 3.7.9 5.3 2.1l.1.2c.5-.7 1.3-1.4 1.9-2.1l.6-.3-.3-.1c-1.3-1.1-2.7-1.9-4.2-2.4-1.2-.4-2.5-.6-3.8-.8zm-13.4.9v.2l-1.3 1.6c-2.1 2.8-3.1 6.1-3.3 9.7l3.2-.1.3.1c-.1-.1-.1-.2-.1-.3.3-3.3 1.4-6.3 3.7-8.8-1-.7-1.8-1.5-2.5-2.4zm22.4 3.3l-.1.1c-1.1 1.1-2.3 2.3-3.3 3.4.1.1.2.3.3.3l.2-.8c.3-.4.7-.1 1.1-.1.6-.1 1.1.1 1.7.1.4.2.5.8.8 1 .1.2 0 .3-.1.4.1.9.5-.2 1 0 .2.1.4 0 .6.2.1.4.5.3.5.6 0 .2-.2.2-.3.3.1.4-.4.6-.2.9.7.1.7-.7 1-1-.2-.6-.3-1.2-.7-1.8l-1-.6c-.7-.3.1-.8 0-1.2-.4-.5-1-1.2-1.5-1.8zm-19.1.1c-1.6 1.9-2.7 4.1-3.2 6.5-.1.6-.1 1.2-.3 1.7.4-.2 1-.1 1.5-.1-.3-.1 0-.5-.2-.7 0-.3-.1-.7.2-.8l.5-1.2c.1-.5.7-.2 1-.4.2-.1 0-.3 0-.4.2-.3.6-.3.9-.5.2-.3.5-.6.8-.8l1.4-1c-.9-.6-1.8-1.5-2.6-2.3zm10.1.4l.2 2.4.8.3 1-.9c.2-.1.3 0 .4.1 0 .3 0 .6-.1.9-.3.6-1.1.7-1.5 1.2.3.2.4-.1.6-.2.3 0 .6.3.8.5.2.1.4 0 .6-.1.1-1 1.3-.8 1.7-1.7l-.2.1c-.1-.1-.3-.1-.3-.3.2-.2.5-.5.7-.6-1.1-.7-2.1-1.2-3.3-1.5-.4-.1-.9-.1-1.4-.2zm-6.3 2.4h.3c.3.3.7.2.9.6.1.2-.2.2-.2.4l.2.1c.2.1.2-.1.3-.2.3-.3.3.3.6.3.2-.1.5-.1.6.1.2-.2.6 0 .6-.3.4-.4.2-1 .7-1.2.2.1 0 .3.1.4.4.2.8-.3 1.1.1-.3-.8-.2-1.7-.2-2.6-1.9.2-3.6.8-5 2.3zm5.7 2c-.2-.2-.6-.1-.8 0 .2.2.1.7.3 1-.4.6-.9.7-1.5.9-.2.2-.1.6-.5.6-.1.3-.5.4-.4.8-.2.4-.1.9-.2 1.3-.7.4-.5-.6-.8-.8l-.1.2c-.1 0-.2 0-.3-.1-.1 0-.3-.1-.4 0-.2.3-.4.5-.3.8-.1.2-.4.1-.4.4.4 0 .8-.1 1.2-.2.3.1.5-.1.8-.1.1 0 .2.1.2.3h.1c.2-.1.3-.4.2-.6 0-.2.3-.2.5-.3.2.1.1.2.1.3.5.2-.1.6-.2.9-.1.2 0 .7-.4.7-.1 0-.1-.1-.1-.2h-.1c0 .2.1.4.3.5.3-.3.3-.7.8-.8.2-.3-.1-.7.3-.9.6 0 1.3-.3 1.7.2 0 .2-.1.3.1.5-.1.3-.2.6-.4.8.1.2 0 .3-.1.4-.2.7-1 .4-1.5.6.7.6 1.6.8 2.6.7.5 0 .3-.6.5-.9.2-.8.9-.3 1.4-.5.2-.4.4-.7.4-1.1-.3-.2-.4-.5-.3-.9-.2-.3-.2-.8-.6-.8-.1-.1 0-.2 0-.3 0-.3.2-.3.3-.5-.3-.2-.2-.6-.2-.8-.5.1-.5-.5-.8-.6-.1-.3-.4-.3-.6-.4-.6.3-.7-.4-1.1-.6 0-.1-.1-.3 0-.4.2-.2.5 0 .7 0l-.4-.1zm-10.2 2.8c-.9.3.2 1-.1 1.6-.1.3-.5 0-.7.2l-.1.6c-.1.4-.6.1-.8.3-.2.2 0 .5.1.7-.3.7.7 1 .7 1.7.3.4 0 1 .4 1.4.1.8-.1 1.8.6 2.4l.1.7c.1.5-.6.4-.5.8.1-.1.2.1.2.2.9-1 1.9-2.1 3-3.1l-.4-.4c-.8-1.2-1.5-2.6-1.8-4l-.3-.2c0 .4-.2.7-.2 1l-.1.1c-.2 0-.4-.2-.6-.3 0-.1-.2-.3 0-.4.1 0 .2 0 .3.1.1-.1.1-.3.1-.5 0-.3-.2-.5 0-.8.2 0 .4.2.5.4.2.1.4-.1.6-.2 0-.2.3-.5 0-.6.2-.5 0-.9 0-1.4-.2-.4-.6-.3-1-.3zm22 .4h-.3.3zm-.8 1.2l.4.4.5 1c.5.2.6.8.8 1.2.1-.1.1-.2.1-.3l.3-2c-.6-.1-1.4 0-2.1-.3zm8 .2l-.2-.1.1.3c-.2 3.9-1.5 7.3-3.7 10.4-.4.5-.8 1.1-1.4 1.5.9.7 1.9 1.8 2.6 2.6l.1-.2c3.6-4.1 5.6-8.8 5.8-14.3l.1-.3-.2.1h-3.2zm-4.7-.1c.1.7-.1 1.4-.2 2.1l.4.4c.1.2.1.4-.1.5-.2.1-.4.1-.5 0-.5 1.6-1.1 3.1-2 4.5-.4.5-.8 1.2-1.3 1.4l1.1.9c.1-.1 0-.2 0-.2 0-.1.1-.3.2-.3.5 0 .5.5.8.8l.2 1.2c3-3.1 4.4-6.9 4.7-11.2l.2-.2c-1.1.1-2.2 0-3.3 0l-.2.1zm-27.3 0l.2.3c0 .8.3 1.5.2 2.3.1-.2.2-.5.4-.7 0-.2-.3-.3-.2-.5.2-.4 0-1.1.6-1.3-.5.1-.8.2-1.2-.1zm-5.6.1l-.3.1h-3.3c.2 3.7 1.2 7.2 2.9 10.3.8 1.5 2 2.9 3.1 4.4l2.3-2.4.3-.1c-.4-.3-.7-.7-1.1-1.1-.4-.1-.8-.4-1-.8l-.1-.5-.1.2c-.4.2-.6-.2-.8-.4-.4-.2-.2-.9-.7-.8-.2 0-.2-.2-.4-.3-.5 0-.6-.5-.8-.7 0 .1 0 .2-.1.3-.5.1-.6-.5-.9-.7-.1 0-.1.1-.3.1-.3-.2-.5-.6-.5-1-.4-.4-.2-1.1-.1-1.7.1-.1.3-.2.2-.4.1-.2.4-.3.6-.3.1 0 .2.1.2.2.2-.1.5 0 .4-.3.2-.2.5-.2.8-.3l.5.7-.2-.3c-.3-1.1-.5-2.3-.6-3.6 0-.1-.2-.1-.1-.2l.1-.4zm4.6 0l-.3.1c-1.1 0-2.2.1-3.3-.1l.1.2.3 2.2c.1.8.5 1.6.4 2.4.1-.2 0-.5.4-.6-.1-.3.2-.5 0-.7.1-.6.2-1.1.7-1.5l1.2-.8c.3 0 .5.4.6.5-.3-.5-.2-1.2-.1-1.7zm6 1.4l.8 1.9.9 1.5c.2-.4.7-.8 1-1.1 0-.2 0-.3-.1-.5s0-.6-.2-.8c-.3.1.1.4 0 .6-.1.1-.3 0-.3-.1-.3 0-.5-.3-.6-.5.2-.1-.1-.2-.1-.3-.1-.1-.1 0-.2.1h-.2c0-.8-.7-.5-1-.8zm3.7.9c-.1.3-.3.6-.5.8.3-.2.5-.6.8-.6l-.3-.2zm9.2 1c0 .2 0 .4.2.6.5-.1.3.6.7.5.2-.1 0-.3.1-.4-.1-.4-.4-.4-.6-.6 0-.1 0-.1.1-.2-.3-.2-.4 0-.5.1zm6.6 0c-.3 0-.8.2-1-.1-.1-.1-.2 0-.2.1-.1.2-.2.4-.5.3-.2-.1-.2-.3-.3-.5 0 .1 0 .2-.1.4l-.5.8c-.2.3-.6.2-.9.4 0 .6-.7.4-1 .6 0 .1.1.1.1.1.2 0 .4 0 .5-.1.5.1.4-.5.7-.7.2 0 .5-.2.7-.1.3.3.3.8.3 1.2-.3.3-.1.7-.3 1.1 0 .4-.4.6-.4.9-.2.2-.4.2-.6.2-.9-.4-1.9-.6-2.9-.7-.1 0-.2.1-.1.2.4.2.9.2 1.4.4.4.1.7.6 1.2.4.4-.2 1.1.1 1.4-.3 0-.4.3-.8.5-1.1h.1c.2.2.2.6.3.9l.9-1.1c.8-1.1 1.4-2.3 1.7-3.6-.4.2-.7.2-1 .3zm-14.7 0c-.5.8-1.5 1.6-2.2 2.3 1.3 1 2.7 1.7 4.2 1.9l.1-1c.1-.3.4-.2.7-.2.1 0 .2-.2.1-.3-.3-.1-.2-.4-.3-.7l.2-.2-.1-.6c.1-.1.1-.2.3-.2-.7.4-1.5-.1-2.2-.4-.3 0-.8-.2-.8-.6zm6.8 2.1c0 .1-.2.3 0 .3.3-.3.9-.3.9-.7-.4-.1-.6.1-.9.4zm1.3.8c-.4 0-.6.3-.8.5l-.8-.2c0 .1.1.1.1.1.1.1.1.3 0 .3-.4.4-.6-.2-1-.1v.1c0 .1 0 .2-.1.2-.2-.4-.7-.2-1-.6-.2-.1-.3 0-.4.1-.1.2-.5 0-.4.3-.3.1-.3.4-.5.6-.4-.1-.5.3-.9.3 0 .1 0 .2.1.2.2.1.4.1.7.1.4-.6.9-.1 1.4-.3.3.1.1.4.3.5.5-.2.8.4 1.2.1 0-.6.6-.5.9-.6.5-.3 1.1-.7 1.1-1.4l.1-.2zm-11.3.4c-.7.8-1.5 1.7-2.3 2.4.4 0 .6.4.9.6 1.8 1.5 3.9 2.2 6 2.7l-.6-.3c-.4-.5-1-1-1-1.7.4-.1.4-.6.5-.9.4-.4.8-.6 1.2-.7-1.2.5-2.2-.4-3.2-.8-.5-.5-1.2-.8-1.5-1.3zm16.3 3.2l-.1-.2c-.1.3-.3.5-.5.7 0 .2-.1.5.2.6.5.2 1.1.5 1.2 1-.2.5-1.2 1-.6 1.5.2.3-.3.4-.2.6l.2-.2c.7-.6 1.5-1.1 2.1-1.7h.1c-.1 0-.3.1-.5 0-.3-.2-.4-.4-.4-.8l-1.5-1.5zm-18.9.5zm.4.5c-.2-.1-.2-.2-.3-.4l.3.4zm.1.1c.1.3.4.5.3.8-.2.3-.6.3-.9.3-.7-.1-1.2.4-1.8.5-.6.2-.8-.5-1.3-.5 3.3 2.8 7 4.6 11.3 4.9l.3.2-.1-.4v-3.1l-.3.1c-2.8-.1-5.3-1.2-7.5-2.8zm21.6 2.2l-.1-.3c-.3.6-1.1 1.1-1.6 1.5-.8.8-2 .9-2.4 2-.4.4-.6 1-1.1 1.2-.2.6-.8.5-1.1.9-1 .9-1.6-.6-2.5-.7l-1.8.3c-.6 0-1.2.2-1.8 0 .1 1.2.1 2.5 0 3.7l.2-.1c5.6-.2 10.5-2.4 14.7-6.2l-2.5-2.3zm-26-.1v.1l-2.4 2.4c3.7 3.2 7.8 5.2 12.5 5.8.7.1 1.6.1 2.3.3l-.2-.3v-3.2l.1-.2-.4.1c-4.5-.1-8.5-1.8-11.9-5zm13.4.8l.2.3c0 1 .1 1.9 0 2.9.9-.3 1.9-.2 2.8-.4-.2-.1-.4-.1-.5-.3-.6 0-.8-.6-1-1-.1-.3.1-.6.3-.8-.2-.5-1-.1-1.4-.3-.1-.2-.2-.3-.4-.4zM593.5 69.8c1.7 1.5 2.5 3.5 3 5.6l.3.7c-2.5-1.8-4.8-4.2-6.3-6.7l-1.9-2c1.6.6 3.5 1.1 4.9 2.4zM550 72.8c-1.1 1.4-2.6 2.4-3.9 3.6.7-1.5.7-3.2 1.7-4.5 1.4-2.5 4-3.3 6.4-4.2-1.7 1.4-2.9 3.4-4.2 5.1zM599.6 75.4c.6 2.5-.2 4.9.3 7.3-1.3-2.6-4.2-3.9-6.1-6-1.1-1.3-1.6-2.8-1.9-4.4 1.1 2.7 4.1 3.3 5.9 5.6.6.5.8 1.3 1.1 1.9l.1-.1c-1-2.1-1.3-4.5-2-6.8-.4-1-1-2-2-2.6 2.2.6 4.2 2.9 4.6 5.1zM547.9 70.8c-2.3 1.6-2.2 4.5-2.9 6.8l-.8 2.6h.1c.4-1 1.1-2 1.9-2.8 1.7-1.5 4.1-2.5 4.9-4.7 0 3.1-2.6 5.6-5.1 7.3-1 .9-2 1.9-2.6 3.1-.1-.8.1-1.6.1-2.4-.3-2.7-.5-5.8 1.5-7.9.6-.9 1.7-1.7 2.9-2zM601.1 76c2.1 2.8 2.5 7.3 1 10.5-.6 1.4-1 2.8-1.2 4.3l-.2-.9c-.8-3.1-3.8-5.4-5-8.4-.4-1-.7-2-.9-3 1.3 2.4 4.5 3.7 5.4 6.3.4.7.3 1.5.6 2.2 0 0 .1 0 .1-.1-.4-2.8-.3-5.6.1-8.3 0-1.5-.2-2.9-1-4 .5.3.7.9 1.1 1.4zM542.9 75.1c-1.8 2.7-.3 6.1-.4 9.2l-.2 3.2s0 .1.1.1l.2-1.1c.4-2.5 2.6-4.3 4.6-6.1.4-.5.8-.9 1-1.5-.2 1.3-.5 2.5-1.1 3.7-1.5 2.9-4.3 5.3-4.8 8.7-.2-3.2-2.4-5.6-2.2-9-.1-2.8 1.1-5 2.7-7.1 0-.1.1-.1.1-.1zM603 94.2c-1.2 1.7-2.7 3.4-3.9 5.2.1-1.4.3-3.1-.3-4.5-.9-2.9-1.8-5.8-2-8.9v-1.2c.7 3.2 3.9 5.4 3.7 9 .1.9-.2 1.6-.4 2.4l.1.1.1-.2c.5-1.8.7-3.6 1.4-5.3 1-2.4 2.3-4.8 1.8-7.6 1.7 3.3 1.3 7.8-.5 11zM542 93.1c.3 1.2.4 2.5.9 3.6 0 0 .1 0 .1-.1-1.2-3.4.5-6.5 2.3-9.1.4-.7.7-1.5.9-2.3.2 1.5-.2 3.3-.4 4.9-.4 2-1.1 3.9-1.6 5.9-.4 1.2-.3 2.6-.1 3.9l-.2-.1c-1.3-2.4-3.8-4.2-4.6-6.8-.6-2-1-4.4-.6-6.7.2-.9.4-1.8.7-2.6-.6 3.6 1.8 6.2 2.6 9.4zM598.2 99.7c-.1 1.6-.6 3-1.4 4.3h.1c1.1-1.5 2-3 3.3-4.4 2-2 4.1-4 4.4-6.7.7 4.6-1.9 8.5-5.6 11.1-1.6 1-3.1 2-4.6 3.1v-.1c2.3-3.8 1.2-9.1 2.6-13.2l.5-1.4c-.3 2.5.8 4.7.7 7.3zM547.9 104.9c.2.9.7 1.6 1.1 2.5-3.5-2.4-8.2-4.6-9.8-9-.7-1.5-.7-3.4-.6-5.1.3 3.9 4.5 5.9 6.4 9.1.5.7.9 1.4 1.5 1.9l-.6-1.2c-.7-1.3-.9-3-.8-4.6.2-2 1-3.8.7-5.9 1.7 3.8 1.2 8.3 2.1 12.3zM593 107.8c-.6 1-1.5 2.1-2.4 2.9.3 0 .6-.3.8-.5 2.5-2.5 5.8-3.2 8.5-5.2 1.1-.9 2.1-2 2.6-3.2-.5 4.2-4.6 8.1-8.5 9.3-2 .5-4.2.7-6.1 1.4 3.3-2.8 3.1-7.2 5.3-10.6.7-.9 1.3-1.9 2.1-2.8-1.3 2.6-.7 6.1-2.3 8.7zM551.2 104.3c1.2 2.9 1.6 6.1 4.3 8.3-2.9-1-6.4-.7-8.9-2.5-2.8-1.7-5.3-4.7-5.9-7.9 1.9 4.4 6.8 4.8 10.1 7.4.6.5 1.2 1 1.9 1.3-.8-.7-1.6-1.5-2.1-2.3-1.9-2.7-1.2-6.4-2.7-9.2 1.3 1.5 2.5 3.1 3.3 4.9zM585.9 112.9c-.7.5-1.6.6-2.4.9 1.1 0 2-.3 3.1-.5 3.9-.6 8.3 0 11-3.3-1 2.3-3.5 4.2-5.8 5-3.9 1.5-7.9-.3-11.7-.9l-.7-.1c1.8-.4 3.6-.9 5-2.2 2.1-2 4-4.1 6.4-5.7-1.8 2.1-2 5.3-4.9 6.8zM558.8 111.8c1.5 1.3 3.3 1.9 5.2 2.3-.5.2-1.1.1-1.5.2-3.4.8-7.2 2.2-10.8 1-2.4-.7-4.8-2.6-6-4.9 3.1 3.5 8.2 2.4 12.4 3.3.6.1 1.1.3 1.7.2l-1.7-.6c-3.3-1.1-3.7-4.7-5.5-7 2.3 1.5 4.2 3.5 6.2 5.5zM584.3 116.6c2.5.9 5.8.7 8-.9-1.1 1.4-2.6 2.4-4.2 3-3.5 1.3-7.2-.1-9.9-2.1-1.1-.7-2.1-1.7-3.5-1.6-.5 0-1 0-1.5.1 2.7 1.2 5.1 3 7.4 5.1l-1.3 1.2c-2.2-2.4-4.6-4.6-7.3-5.9-.5.1-1 .4-1.5.6-2.2 1.4-4.4 3.2-6 5.4l-1.4-1.2c2.2-2.3 4.7-4 7.4-5.3-2.7-.8-4.4 1.4-6.4 2.5-2.4 1.7-5.8 2.4-8.6 1.3-1.5-.6-3-1.4-4.1-2.8 2.2 1.5 5.6 1.7 8.2.7 3.4-1.5 7-3.4 11.1-2.5.6 0 1.3.7 1.9.1 3.1-.8 6.5-.2 9.2 1.2l2.5 1.1zM515.1 130v5.2c0 1.6.6 2.3 1.6 2.3 1.1 0 1.7-.8 1.7-2.3v-5.2h2v5.1c0 2.8-1.4 4.1-3.8 4.1-2.3 0-3.6-1.3-3.6-4.1v-5h2.1zM523.4 139.1v-9h2.4l1.9 3.3c.5 1 1.1 2.1 1.5 3.1-.1-1.2-.2-2.4-.2-3.8v-2.7h1.9v9h-2.1l-1.9-3.5c-.5-1-1.1-2.1-1.6-3.2.1 1.2.1 2.5.1 3.9v2.7h-2zM535.9 130v9h-2.1v-9h2.1zM540.6 131.8h-2.4v-1.8h7v1.7h-2.5v7.3h-2.1v-7.2zM552.8 135.3h-3.3v2.1h3.7v1.7h-5.8v-9h5.6v1.7h-3.5v1.9h3.3v1.6zM555.7 130.2c.8-.1 1.7-.2 2.8-.2 1.7 0 2.8.3 3.7 1 .9.7 1.5 1.8 1.5 3.4 0 1.7-.6 2.9-1.5 3.7-1 .8-2.4 1.2-4.2 1.2-1.1 0-1.8-.1-2.3-.1v-9zm2.1 7.3h.7c1.9 0 3.1-1 3.1-3.2 0-1.9-1.1-2.9-2.8-2.9-.5 0-.8 0-.9.1v6zM570.2 139.1v-9h2.4l1.9 3.3c.5 1 1.1 2.1 1.5 3.1-.1-1.2-.2-2.4-.2-3.8v-2.7h1.9v9h-2.1l-1.9-3.5c-.5-1-1.1-2.1-1.6-3.2.1 1.2.1 2.5.1 3.9v2.7h-2zM582.7 136.8l-.6 2.3h-2.1l2.8-9h2.7l2.8 9h-2.3l-.7-2.3h-2.6zm2.3-1.6l-.6-1.9-.5-1.7-.4 1.7-.5 1.9h2zM591.2 131.8h-2.4v-1.8h7v1.7h-2.5v7.3h-2.1v-7.2zM600.1 130v9h-2.1v-9h2.1zM611.3 134.5c0 3-1.8 4.8-4.4 4.8-2.7 0-4.3-2-4.3-4.6 0-2.7 1.7-4.7 4.4-4.7 2.8-.1 4.3 2 4.3 4.5zm-6.5.1c0 1.8.8 3 2.2 3 1.4 0 2.2-1.3 2.2-3.1 0-1.6-.8-3-2.2-3-1.4 0-2.2 1.3-2.2 3.1zM613.9 139.1v-9h2.4l1.9 3.3c.5 1 1.1 2.1 1.5 3.1-.1-1.2-.2-2.4-.2-3.8v-2.7h1.9v9h-2.1l-1.9-3.5c-.5-1-1.1-2.1-1.6-3.2.1 1.2.1 2.5.1 3.9v2.7h-2zM624.4 137c.6.3 1.4.6 2.3.6.9 0 1.4-.4 1.4-1s-.4-.9-1.5-1.3c-1.5-.5-2.5-1.4-2.5-2.7 0-1.5 1.3-2.7 3.4-2.7 1 0 1.8.2 2.3.5l-.5 1.7c-.4-.2-1-.4-1.9-.4-.9 0-1.3.4-1.3.9 0 .6.5.8 1.7 1.3 1.6.6 2.3 1.4 2.3 2.7 0 1.5-1.2 2.8-3.7 2.8-1 0-2.1-.3-2.6-.6l.6-1.8z"/>
<g xmlns="http://www.w3.org/2000/svg"><polygon fill-rule="evenodd" clip-rule="evenodd" points="734.3,22.9 727.9,22.9 727.9,54.5 734.3,54.5 734.3,22.9   "/><path fill-rule="evenodd" clip-rule="evenodd" d="M740.3,23v5.9h5.4v17.8c0,2.5,0.7,4.4,2,5.9c1.3,1.5,3,2.3,5.2,2.4 c2.2,0.1,4.1-0.4,5.7-1.4l0.1-0.1v-0.1l1.5-6l-0.4,0.2c-1.7,1.1-3.3,1.6-4.8,1.6c-2,0-3-1.2-3-3.6V28.9h6.6V23h-6.6v-9.9l-6.4,3.4 V23H740.3L740.3,23z"/><polygon fill-rule="evenodd" clip-rule="evenodd" points="771.6,22.9 765,22.9 765,54.5 771.6,54.5 771.6,22.9"/><path fill-rule="evenodd" clip-rule="evenodd" d="M724.2,27.9l-0.1-0.1c-3-3.6-6.7-5.4-11.2-5.4c-4.7,0-8.5,1.4-11.6,4.3 c-3.3,3-4.9,7-4.9,12.1c0,5.1,1.6,9.1,4.9,12.1c3,2.8,6.9,4.2,11.6,4.2c4.5,0,8.2-1.8,11.2-5.4l0.1-0.1l-3.7-4.4l-0.1,0.1 c-2.4,2.4-4.9,3.6-7.7,3.6c-2.9,0-5.2-1-7.1-2.9c-1.9-1.9-2.8-4.3-2.8-7.3c0-2.9,0.9-5.4,2.8-7.3c1.9-1.9,4.2-2.8,7.1-2.8 c2.7,0,5.3,1.2,7.7,3.6l0.1,0.1L724.2,27.9L724.2,27.9z"/><path fill-rule="evenodd" clip-rule="evenodd" d="M731.1,17.7c2.5-2.6,5.4-4.6,8.6-6c3.1-1.4,6.4-2,9.9-2c3.4,0,6.7,0.7,9.9,2 c3.2,1.4,6,3.4,8.6,6l0.1,0.1h7.4l-0.3-0.4c-2.9-4.1-6.8-7.4-11.3-9.8c-4.6-2.4-9.3-3.5-14.4-3.5c-5,0-9.8,1.2-14.4,3.5 c-4.6,2.4-8.4,5.7-11.3,9.8l-0.3,0.4L731.1,17.7L731.1,17.7L731.1,17.7z"/><polygon fill-rule="evenodd" clip-rule="evenodd" points="734.3,22.9 727.9,22.9 727.9,54.5 734.3,54.5 734.3,22.9"/><path fill-rule="evenodd" clip-rule="evenodd" d="M740.3,23v5.9h5.4v17.8c0,2.5,0.7,4.4,2,5.9c1.3,1.5,3,2.3,5.2,2.4 c2.2,0.1,4.1-0.4,5.7-1.4l0.1-0.1v-0.1l1.5-6l-0.4,0.2c-1.7,1.1-3.3,1.6-4.8,1.6c-2,0-3-1.2-3-3.6V28.9h6.6V23h-6.6v-9.9l-6.4,3.4 V23H740.3L740.3,23z"/><polygon fill-rule="evenodd" clip-rule="evenodd" points="771.6,22.9 765,22.9 765,54.5 771.6,54.5 771.6,22.9"/><path fill-rule="evenodd" clip-rule="evenodd" d="M724.2,27.9l-0.1-0.1c-3-3.6-6.7-5.4-11.2-5.4c-4.7,0-8.5,1.4-11.6,4.3 c-3.3,3-4.9,7-4.9,12.1c0,5.1,1.6,9.1,4.9,12.1c3,2.8,6.9,4.2,11.6,4.2c4.5,0,8.2-1.8,11.2-5.4l0.1-0.1l-3.7-4.4l-0.1,0.1 c-2.4,2.4-4.9,3.6-7.7,3.6c-2.9,0-5.2-1-7.1-2.9c-1.9-1.9-2.8-4.3-2.8-7.3c0-2.9,0.9-5.4,2.8-7.3c1.9-1.9,4.2-2.8,7.1-2.8 c2.7,0,5.3,1.2,7.7,3.6l0.1,0.1L724.2,27.9L724.2,27.9z"/><path fill-rule="evenodd" clip-rule="evenodd" d="M731.1,17.7c2.5-2.6,5.4-4.6,8.6-6c3.1-1.4,6.4-2,9.9-2c3.4,0,6.7,0.7,9.9,2 c3.2,1.4,6,3.4,8.6,6l0.1,0.1h7.4l-0.3-0.4c-2.9-4.1-6.8-7.4-11.3-9.8c-4.6-2.4-9.3-3.5-14.4-3.5c-5,0-9.8,1.2-14.4,3.5 c-4.6,2.4-8.4,5.7-11.3,9.8l-0.3,0.4L731.1,17.7L731.1,17.7L731.1,17.7z"/></g>
<path d="M640.4 30.1h-6.5l3.2-10.9 3.3 10.9zm13.7 13.9l-10.7-34.2h-10.4l-10.8 34.2h7.8l2-6.9h10.3l2 6.9h9.8zm-34.2 0v-34.2h-13.6l-5 17.3-5.3-17.3h-13.6v34.2h7.6v-24.2l7.4 24.2h5.7l7.4-24.2v24.2h9.4zm-49.5-11.9c0 4.4-.6 7.1-3.4 7.1-2.9 0-3.4-2.8-3.4-7.1 0-4.2.5-7.1 3.4-7.1s3.4 2.9 3.4 7.1m8.6 0c0-7.4-4.7-12.6-12.1-12.6-7.9 0-12 6-12 12.6 0 7.6 5 12.6 12 12.6 7.2 0 12.1-5 12.1-12.6m-27.5 11.9v-34.2h-13.6l-5 17.3-5.3-17.3h-13.6v34.2h7.6v-24.2l7.4 24.2h5.7l7.4-24.2v24.2h9.4z"/><path clip-rule="evenodd" fill="none" d="M817.4 0h81.7v81.7h-81.7z"/><path d="M817.4 0h81.6v81.6h-81.6z"/><path fill="#fff" d="M838.6 25.3c.9-1.8 1.8-3.4 2.6-4.9 6-2.1 11.1-6.2 11.1-9.1 0-.8-.6-1.7-2-1.7-2.9 0-7 3-11.7 10.9-1.6.4-3.2.6-4.7.6-.5 0-.9 0-1.4-.1-.6-2.7-2.7-4.7-6.6-4.7h-.7c-.1-.3-.1-.6-.1-.8 0-3 2.7-4.9 6.8-4.9 3.6 0 5.7 1.8 6.5 2.3l.3-.5c-.7-.6-3.2-2.5-6.8-2.5-4.6 0-7.4 2.3-7.4 5.6 0 .3 0 .5.1.8-2.7.3-5.3 1.6-7.4 3.5v.8c2.1-2 4.8-3.4 7.6-3.7.8 2.2 3.5 4.1 7.2 4.6.1.4.1.8.1 1.1 0 5-5.3 9-7.9 10.1l.2.4c2.5-.9 8.3-5 8.3-10.5 0-.4 0-.8-.1-1.1h1c1.5 0 3-.2 4.5-.5-.6 1.1-1.3 2.3-2 3.6-4.4 9.4-9.4 13.4-14.2 13.4-1.8 0-3.3-.3-4.5-1v.7c1.4.6 3 1 4.8 1 5.1 0 11.5-3.7 16.4-13.4m11.9-15.1c.9 0 1.3.6 1.3 1.1 0 2.6-4.6 6.2-10.1 8.3 4-6.8 6.9-9.4 8.8-9.4m-24.9 6.8h.5c3.3 0 5.3 1.6 5.9 4-3.3-.5-5.6-2.1-6.4-4m70.4 33.3c-.5 0-.9-.3-.9-.8 0-.7.5-1.6 1.3-3.1 1-2 1.7-3.1 1.7-4.2s-.8-2-2.3-2c-1.5 0-2.3.9-2.6 1.2l-.1-.1c.5-1 4.1-8 4.1-8h-2.3s-4.5 8.9-6.4 12.6c-1.1 2.2-2.9 4.2-4.3 4.2-.5 0-.8-.3-.8-.7 0-.4.2-.8.5-1.4.7-1.4 3.5-6.8 3.5-6.8h1.7l.3-.5h-1.7l1.4-2.6h-2.3l-1.4 2.6h-3.4s.7-1.4 1.5-2.9c1.5-2.9 3.1-4.4 4.2-4.4.6 0 .8.3.8.6s-.3.5-.3 1 .4.9 1 .9c.7 0 1.2-.6 1.2-1.3 0-.9-.9-1.7-2.7-1.7-3.5 0-5.9 3.7-7.1 6-.5 1-.9 1.7-.9 1.7h-1.7l-.3.5h1.8s-1.2 2.5-1.9 3.9c-1.3 2.6-3.5 5.1-4.7 5.1-.5 0-.8-.3-.8-.7 0-.3.2-.9.5-1.5.7-1.4 3.8-7.4 3.8-7.4h-6.2c2-4 3.4-6.1 4.8-7.3.5.2 2.2 1 4.3 1 2.6 0 3.8-1.1 3.8-2.4 0-1-1-1.7-3.1-1.7-2.8 0-5.2 1.5-5.9 1.9-1.8-.9-3.4-1.9-5.2-2.6.1-.4.2-.8.2-1.2 0-2.4-.9-3.2-1.2-5.5.6-.4 1.4-.7 1.4-1.5 0-.3-.2-.6-.7-.6-.6 0-1.4.7-1.4 1.7l-3.6 4.6c-.4.5-.7.9-1 1.3-1.3 0-2.4.2-3.4.5v-.1c0-1.6-1-2-2-2 2.6-.3 5.8-1.6 5.8-4 0-1-.6-1.7-1.7-1.7-1.5 0-2.7 1.1-3.4 1.9h-.1c.8-1.6 4.3-8.5 4.3-8.5h-2.2s-5.2 10.1-6.4 12.6c-1.1 2.1-2.9 4.3-4 4.3-.7 0-.9-.4-.9-.8 0-.7.5-1.6.8-2 .5-1 3.7-7.2 3.7-7.2h-2.2s-.7 1.5-.8 1.5h-.1c.1-.4 0-1.9-2.2-1.9-3.3 0-7.5 4.9-7.5 8.8 0 1.7 1 2.7 2.5 2.7 2.1 0 3.4-1.7 3.9-2.4l.1.1c-.2.3-.2.6-.2.9 0 .8.6 1.4 1.7 1.4 2.1 0 3.5-1.9 4.1-2.6h.1l-1.1 2.2h1.8s2.2-4.3 2.6-5.2c.8 0 1.5.5 1.5 1.3 0 .6-.1.9-.2 1.4-3 1.5-4.4 4.2-4.4 6.7 0 3.6 2.6 5.4 5.3 5.4 5 0 7-4.5 7.3-5.2-.1 0-.5-.2-.5-.2-.4.8-2.3 4.8-6.8 4.8-3 0-4.7-2.1-4.7-4.7 0-2.4 1.3-4.7 3.8-6v.3c0 1.1.5 1.8 1.6 1.8 1.3 0 2.3-1.1 4.2-3.5h.2c1.3 0 2.5.2 3.6.5-.1.2-.2.4-.2.6-.5 1.2-1 2-1.9 2-.6 0-.8-.3-.8-.6 0-.4.5-.5.5-1.1 0-.3-.2-.6-.7-.6-.6 0-1 .6-1 1.2 0 .9.9 1.6 2.3 1.6 1.8 0 3.2-1 3.8-2.4 2 .8 3.6 1.9 4.9 2.4-2.1 1.5-3.6 4-5.8 8h-3.3l-.3.6h3.3c-4.1 7.7-7.4 13.6-14.1 13.6-3.8 0-6.4-2.4-7-5.3l2.5-1.5-.2-.7c-.2.1-1.4.3-2.5.5.2-5.7 5.9-6.5 7-6.6v-.4c-2.9.1-7.5 2-7.6 7.1h-.6c-5.9 0-9.4-3.3-13.5-3.3-4.8 0-7.4 3.1-7.4 6.2 0 4 3.4 5.2 4.1 5.5l.2-.5c-.7-.4-3.7-1.4-3.7-5 0-3.5 3.2-5.6 6.8-5.6 3.5 0 6.7 2.7 12.1 3.1v.2c-7 2-11.4 6.7-14.6 11.2l-.7 1h-3.3l-.3.6h3c-3.2 4.4-6.2 8.4-10.2 10v.7c4.4-1.5 7.5-6 10.9-10.6h6.4c-.4 1.5-.7 3.1-.7 4.8 0 4.3 2.1 6.3 5.3 6.3 3.1 0 4.9-1.9 5.3-2.3l-.4-.4c-.4.4-1.8 1.8-3.7 1.8-2.3 0-4.2-1.6-4.2-5.3 0-1.7.2-3.3.7-4.9h4.8c-.5 1.1-1.1 2.2-1.6 3-.3.6-.7 1.4-.7 2.3 0 1.1.9 1.9 2.6 1.9 3.8 0 6.2-4.9 6.8-6.4.2.1.9.4 1.4.5-.2.5-.7 1.4-.7 2.5 0 2 1.3 3.4 3.6 3.4 3.1 0 4.6-1.9 5.2-2.6l.1.1-1 2.1h1.9s2.6-5 2.9-5.6c1.2-2.4 2.9-4.2 4.4-4.2.6 0 .9.4.9.8 0 .7-.6 1.7-1.6 3.8-.9 1.7-1.5 3.1-1.5 4.1 0 1 .7 1.6 1.8 1.6 1.9 0 2.7-1.5 3.3-2.3h.1c-.2.6.1 2.2 2.1 2.2 2.2 0 3.2-1.7 3.7-2.3l.1.1c-.2 1.2.6 2.3 2.3 2.3 1.8 0 2.9-1.4 3.5-2 .2.5.9 2 3.3 2 3.5 0 5.5-3.3 6.1-4.6l-.5-.2c-.9 1.7-2.7 4-5 4-1.6 0-2.3-1-2.3-2.4 0-1 .6-2 .9-2.5 4.2 0 7.3-2.3 7.3-4 0-.9-.8-1.4-1.9-1.4-3.9 0-8.1 4.2-8.1 7.7 0 .4.1.7.1.8-.5.5-1.7 1.8-3 1.8-.6 0-.9-.3-.9-.9 0-.6.4-1.5.9-2.4 1-1.9 3.4-6.7 3.4-6.7h-2.3s-2.2 4.4-3.3 6.4c-1 2-2.5 3.5-3.7 3.5-.7 0-1-.4-1-.8 0-.7.5-1.5 1-2.5.9-1.8 3.4-6.6 3.4-6.6h-2.2s-2.2 4.2-3.1 6.1c-1.1 2.2-2.6 3.8-3.5 3.8-.5 0-.8-.4-.8-.7 0-.7.5-1.4 1.4-3.2 1.2-2.4 1.9-3.6 1.9-4.7s-.9-1.8-2.2-1.8c-1.5 0-2.9 1.1-3.6 2h-.1l.7-1.6h-1.9s-1.7 3.3-2.8 5.4c-1.3 2.6-3.6 4.5-5.7 4.5-1.7 0-2.4-1.1-2.4-2.4 0-1 .6-2 .9-2.5 4.5 0 7.3-2.4 7.3-4 0-.8-.8-1.4-1.9-1.4-2.8 0-5.8 2.2-7.3 4.7-.5-.1-1.3-.5-1.5-.6.1-.5.3-1.1.3-2.1 0-.8-.3-2-1.1-2-.7 0-1 .8-1 1.6 0 1.5.6 2.2 1.1 2.7-.6 1.9-3.2 6-5.6 6-.9 0-1.3-.5-1.3-1.1 0-.5.2-1 .6-1.7.7-1.3 3.6-7.1 3.6-7.1h-2.2s-.7 1.4-1.5 2.9h-4.9c1.4-4.4 4.6-8.2 8.3-10.8.9 3.4 4 5.7 8.2 5.7 8.5 0 12.9-8.5 16-14.3h4c-.6 1.2-2.1 4.1-2.8 5.6-.6 1.2-.9 2-.9 2.7 0 .8.7 1.6 1.9 1.6 2 0 3.3-1.7 3.9-2.4h.1c-1.7 3-3.1 6.2-6.6 6.2-.5 0-.9-.1-1.3-.2l-.2.5c.5.2 1.1.3 1.8.3 3.3 0 5.8-1.9 8.7-7.4 1.5-2.8 3.6-6.9 3.6-6.9h3.3s-1.9 3.7-2.8 5.6c-.6 1.2-.9 2-.9 2.6 0 .9.6 1.7 2.1 1.7 1.8 0 3.3-1.8 3.9-2.6h.1l-1.1 2.2h2s2.4-4.7 3.1-6.1c1.1-2.2 2.4-3.6 3.7-3.6.7 0 1 .4 1 1 0 .8-.5 1.6-1.5 3.5-.7 1.4-1.5 2.5-1.5 3.8 0 1.3 1 1.9 2.1 1.9 2.3 0 3.3-1.9 3.8-2.6v-1c-.6.9-2 2.8-3.1 2.8m-15.6-19.3c1.4 0 2 .5 2 1 0 1.1-1.1 1.8-3 1.8-1.6 0-2.9-.5-4-.9 1.6-1.3 3.3-1.9 5-1.9m-36.9.9c-.8 0-1.3-.6-1.3-1.4 0-2.7 3.6-8.6 6-8.6.9 0 1.2.7 1.2 1.4 0 2.6-3.7 8.6-5.9 8.6m12.6-5.4c.9-1.7 2.5-4 4.2-4 .6 0 .9.4.9.9 0 1.8-2.1 2.9-5.1 3.1m3.5 4.9c-.4 0-.7-.3-.7-.8 0-.3 0-.6.1-.9.9-.3 1.9-.5 3-.5-1.1 1.4-1.8 2.2-2.4 2.2m7.2-2.4c-1.1-.3-2.3-.5-3.6-.5.2-.3.5-.7.8-1 1.3-1.7 2.3-2.9 3.2-4.1.1.6.2 1.4.2 2.5s-.3 2.2-.6 3.1m22.4 28.9c.7 0 1 .4 1 .8 0 1.6-2.4 3.5-5.7 3.5 1.3-2.1 3.4-4.3 4.7-4.3m-31.5 0c.6 0 1 .3 1 .8 0 1.6-2.5 3.5-5.7 3.5 1.5-2.4 3.4-4.3 4.7-4.3m-22.8 2.9h-6.1l.6-.8c4.2-6 8.9-9.5 16.1-11.6v.2c-4.1 2.2-8.7 6.5-10.6 12.2m40.1-22.7c0 .5.4 1 1.1 1 1 0 1.8-.8 1.8-1.6 0-.5-.3-1-1.2-1-1 0-1.7.8-1.7 1.6m-55.7 27l.3.5c2-1.3 4.1-3.5 4.1-6.7 0-2.6-1.8-4.8-5.4-4.8h-.9v.6h.9c3.2 0 4.7 1.9 4.7 4.3 0 2.8-1.8 4.8-3.7 6.1"/><g fill-rule="evenodd" clip-rule="evenodd"><path d="M665 139.2h234.1v-28.4h-234.1v28.4z"/><path fill="#fff" d="M681.2 120.9l-.1 10.4c0 .3-.2.3-.4 0-.3-.3-1.7-1.7-3.2-2.1-1.4-.4-1.6-.4-3-.4s-2.7-.1-2.8-.2c-.2-.1-.4-.1-.4-.7l1.5-10.3c.1-.4 0-.7.7-.5.8.2 2.8.2 3.1.2.6 0 1.9.4 2.7 1.1.9.9 1.9 1.8 1.9 2.5zM681.8 120.9v9.9c0 .5.2.6.5.2.3-.5.8-.9 1.3-1.1 1.9-.9 4.5-1.1 4.8-1.1l2.3-.2c.6-.2.7 0 .6-1.2l-1.3-10c0-.4-.1-.4-.4-.4-.3.1-.2.1-1.5.3-.6.1-1.5 0-2.5.3s-1.8.8-2.6 1.6c-.5.2-1.2.8-1.2 1.7zM710.1 117.5c.3-.1.4-.2.4.1 0 .5.2 2.7.2 2.9 0 .2-.1.2-.2.1-.3-.3-1.5-1.6-3.2-2-1.3-.3-2.3-.3-3.1-.1-.9.2-1.4.7-1.8 1.1-.5.7-.4 1.6.1 2.1.6.6 1.7.8 2.8.9 1 .2 3 .4 3.9.8.8.3 1.6.9 2 1.6.6.9.6 2.6-.1 3.5-.8 1.1-1.8 1.7-2.9 2-1.6.4-3.3.3-4.9-.1-1.4-.4-2.5-.7-3.4-.2-.2.1-.2.1-.2-.2 0-.3-.2-2.8-.2-3.2 0-.2.1-.1.2-.1.5.5 2 1.6 3.7 2.2 1.4.5 2.7.6 4.3.2.8-.2 1.3-.8 1.5-1.1.3-.5.3-1.4-.1-1.8-.3-.3-.7-.8-3.9-1.3-3.3-.5-4.3-1.3-4.9-2.3-.8-1.2-.7-2.5-.1-3.5s1.5-1.5 2.3-1.9c1.1-.4 2.7-.6 4.4-.3 1.7.5 2.4.9 3.2.6zM731.8 118.2c0-.2-.1-.2-.3-.3-.3-.2-1.5-.6-2.2-.7-1.5-.3-3.2-.3-4.9.1-1.5.4-3.1 1.1-4.6 3.3-1.1 1.6-1.4 4.4-.1 6.4 1.3 1.9 3 2.9 4.5 3.4s3.7.6 5.5.1c.8-.2 1.7-.5 2-.7.2-.1.2-.1.3-.3.1-.4.3-1.7.4-2.3 0-.2-.1-.2-.2-.1-.6.6-1.7 1.3-2.7 1.7-1.3.5-3.1.8-4.8-.1-1.7-.9-2.4-2-2.7-2.6-.6-1-1-3.2.3-5.3.8-1.3 1.8-1.8 2.7-2.2 1.1-.5 2.8-.6 4.1-.1.8.3 2 1 2.6 1.7.1.1.2.1.2-.1.1-.1-.1-1.9-.1-1.9zM752.5 124h-8.9v4.3c0 .5.1 1.6 1.2 2 .1 0 .1.2 0 .2h-4.6c-.1 0-.1-.1 0-.2 1.1-.4 1.2-1.5 1.2-2v-9c0-.5-.1-1.6-1.2-2-.1 0-.1-.2 0-.2h4.6c.1 0 .1.1 0 .2-1.1.4-1.2 1.5-1.2 2v3.4h8.9v-3.4c0-.5-.1-1.6-1.2-2-.1 0-.1-.2 0-.2h4.6c.1 0 .1.1 0 .2-1.1.4-1.2 1.5-1.2 2v9c0 .5.1 1.6 1.2 2 .1 0 .1.2 0 .2h-4.6c-.1 0-.1-.1 0-.2 1.1-.4 1.2-1.5 1.2-2v-4.3zM791 129.3v-9.9c0-.7.2-1.5 1.3-2 .1 0 .1-.2 0-.2h-4.800000000000001c-.1 0-.1.1 0 .2 1.1.4 1.2 1.5 1.2 2v9c0 .5-.1 1.6-1.2 2-.1 0-.1.2 0 .2h8c.7 0 1.4.2 1.9.5.1 0 .2.1.2-.1l1-2.6c.1-.1 0-.2-.2-.1-.1.1-1.2 1.1-2.9 1.1-1.6-.1-4.5-.1-4.5-.1zM838.4 117.5c.3-.1.4-.2.4.1 0 .5.2 2.7.2 2.9 0 .2-.1.2-.2.1-.3-.3-1.5-1.6-3.2-2-1.3-.3-2.3-.3-3.1-.1-.9.2-1.4.7-1.8 1.1-.5.7-.4 1.6.1 2.1.6.6 1.7.8 2.8.9 1 .2 3 .4 3.9.8.8.3 1.6.9 2 1.6.6.9.6 2.6-.1 3.5-.8 1.1-1.8 1.7-2.9 2-1.6.4-3.3.3-4.9-.1-1.4-.4-2.5-.7-3.4-.2-.2.1-.2.1-.2-.2 0-.3-.2-2.8-.2-3.2 0-.2.1-.1.2-.1.5.5 2 1.6 3.7 2.2 1.4.5 2.7.6 4.3.2.8-.2 1.3-.8 1.5-1.1.3-.5.3-1.4-.1-1.8-.3-.3-.7-.8-3.9-1.3-3.3-.5-4.3-1.3-4.9-2.3-.8-1.2-.7-2.5-.1-3.5s1.5-1.5 2.3-1.9c1.1-.4 2.7-.6 4.4-.3 1.8.5 2.4.9 3.2.6zM852.4 118.6h-3.5c-.7 0-1.1 0-2 .4-.2.1-.2 0-.1-.2l1.7-2.1c.1-.1.1-.1.2 0 .2.2.7.5 1.5.5h8.1c.7 0 1.6-.1 2.4-.4.1 0 .2 0 .1.1-.3.5-1.2 1.6-1.5 2-.1.2-.2.1-.3 0-.2-.1-.5-.4-1.5-.4h-2.9v9.8c0 .5.1 1.6 1.2 2 .1 0 .1.2 0 .2h-4.6c-.1 0-.1-.1 0-.2 1.1-.4 1.2-1.5 1.2-2v-9.7zM871.5 119.4c0-.5.1-1.6 1.2-2 .1 0 .1-.2 0-.2h-4.7c-.1 0-.1.1 0 .2 1.1.4 1.2 1.5 1.2 2v9c0 .5-.1 1.6-1.2 2-.1 0-.1.2 0 .2h4.6c.1 0 .1-.1 0-.2-1.1-.4-1.2-1.5-1.2-2v-9h.1zM893 118.2c0-.2-.1-.2-.3-.3-.3-.2-1.5-.6-2.2-.7-1.5-.3-3.2-.3-4.9.1-1.5.4-3.1 1.1-4.6 3.3-1.1 1.6-1.4 4.4-.1 6.4 1.3 1.9 3 2.9 4.5 3.4s3.7.6 5.5.1c.8-.2 1.7-.5 1.9-.7.2-.1.2-.1.3-.3.1-.4.3-1.7.4-2.3 0-.2-.1-.2-.2-.1-.6.6-1.7 1.3-2.7 1.7-1.3.5-3.1.8-4.8-.1-1.7-.9-2.4-2-2.7-2.6-.6-1-1-3.2.3-5.3.8-1.3 1.8-1.8 2.7-2.2 1.1-.5 2.8-.6 4.1-.1.8.3 2 1 2.6 1.7.1.1.2.1.2-.1.2-.1 0-1.9 0-1.9zM771.5 130.8c-.8 0-3.6-.1-5.7-1.8-2-1.7-2.5-3.6-2.5-5v-.1c0-1.3.5-3.3 2.5-5 2.1-1.8 4.9-1.8 5.7-1.8h.2c.8 0 3.6.1 5.7 1.8 2 1.7 2.5 3.6 2.5 5v.1c0 1.3-.5 3.3-2.5 5-2.1 1.8-4.9 1.8-5.7 1.8h-.2zm.2-1.4c1.1 0 2.8-.4 3.9-1.7 1.2-1.2 1.5-2.7 1.5-3.7v-.1c0-1.1-.4-2.5-1.5-3.7-1.2-1.2-2.8-1.7-3.9-1.7h-.2c-1.1 0-2.8.4-3.9 1.7-1.2 1.2-1.5 2.7-1.5 3.7v.1c0 1.1.4 2.5 1.5 3.7 1.2 1.2 2.8 1.7 3.9 1.7h.2zM810.9 117.3h2.4s6.4 11.1 6.8 11.7c.4.6.9 1.2 1.4 1.3.1 0 .1.2 0 .2h-4.1c-.2 0-.1-.1 0-.2s.7-.4.3-1.1c-.3-.5-1.3-2.3-1.3-2.3h-8.4s-1.1 1.9-1.3 2.3c-.1.3-.2.8.2 1.1.1.1.1.2 0 .2h-3c-.1 0-.2-.1 0-.2.3-.1.8-.3 1.5-1.6.7-1.2 5.6-9.7 5.8-10.2.2-.4.3-.8-.1-1.2h-.2zm-2.4 8.4h7.1l-3.5-6.3-3.6 6.3z"/></g><path stroke="#000" stroke-width=".299" d="M429.4 22.1v-6.7l-1.4-1.4-.4-.1-1.2.1v-1l-1.5-1.6h-10.4v16.2c0 1.4.5 2.5 1.1 3.3.2.3.4.5.6.7 0 .1.1.1.2.1 0 .1.1.1.2.1 0 .1.1.1.2.1 0 .1.1.1.2.1 0 .1.1.1.2.1 0 .1.1.2.2.2 1.5 1.6 4.2 1.9 6.4 1.9h5.8v-6.6h-.3v-.3h-.3v-.3h-.3v-.3h-.3v-.3h-1.8v-4.5h2.8zM449.2 24.7c0-.1-.1-.1-.2-.1 0-.1-.1-.1-.2-.1 0-.1-.1-.1-.2-.1 0-.1-.1-.1-.2-.1 0-.1-.1-.1-.2-.1 0-.1-.1-.2-.2-.2-.1-.1-.2-.2-.4-.3-.3-.3-.8-.7-1.3-1h3.2v-1.9c0-1.4-.5-2.5-1.3-3.3 0-.1-.1-.1-.1-.1 0-.1-.1-.1-.1-.1 0-.1-.1-.1-.1-.1 0-.1-.1-.1-.1-.1 0-.1-.1-.1-.1-.1 0-.1-.1-.1-.1-.1l-.1-.1c0-.1-.1-.1-.2-.2-2.2-2.4-7-2.4-8.9-2.4-8.7 0-10.5 3-10.5 5.6v.2c0 1.3.3 2.4 1.3 3.3l.3.3c0 .1.1.1.2.1 0 .1.1.1.2.1 0 .1.1.1.2.1 0 .1.1.1.2.1 0 .1.1.1.2.1 0 .1.1 0 .2 0 .4.5 1.1 1 1.9 1.3h-4.4v1.6c0 1.6.5 2.8 1.4 3.7l.3.3c0 .1.1.1.2.1 0 .1.1.1.2.1 0 .1.1.1.2.1 0 .1.1.1.2.1 0 .1.1.1.2.1 0 .1.1.1.2.1 1.5 1.6 4.6 2.3 9.3 2.3 5.1 0 10.5-.8 10.5-6.4v-.8c-.6-.4-1-1.3-1.7-2zM334.7 32.6h-19.6v-2.3l-1.7-1.4-.4.1h-10.8v26.3h.3v.3h.3v.3h.3v.3h.3v.3h32.6v-22.6zM432.7 33.9l-.7-.1h-9.8v15.9c0 1.7.5 2.9 1.4 3.8l.3.3.1.1c0 .1.1.1.1.1 0 .1.1.1.1.1 0 .1.1.1.1.1 0 .1.1.1.1.1 0 .1.1.1.1.1 1.5 1.6 4.1 1.8 6.4 1.8h5.7v-6.3h-.3v-.3h-.3v-.3h-.3v-.3h-.6v-.3h-1.5v-4.5h3v-6.4l-1.6-1.6h-1.3v-1l-1-1.3zM355.8 36.2h-10.2v.6h-.3v-.3h-.3v-.3h-10.5v13.2c0 1.8.7 3.2 1.9 4.2l.1.1.1.1.1.1.1.1.1.1.1.1.1.1c1.3 1.3 3.5 2 6.3 2h13.6v-18.5l-1.2-1.6zM456.4 39.8c0-.1-.1-.1-.2-.1 0-.1-.1-.1-.2-.1 0-.1-.1-.1-.2-.1 0-.1-.1-.1-.2-.1 0-.1-.1-.1-.2-.1 0-.1-.1-.1-.2-.1l-.1-.1-.2-.2c-1.5-1.5-4.2-2.7-9.2-2.7-7.1 0-10.6 2.2-10.6 6.5v6.3c0 1.7.5 3.1 1.6 4.2l.3.3c0 .1.1.1.1.1 0 .1.1.1.1.1 0 .1.1.1.1.1 0 .1.1.1.1.1 0 .1.1.1.1.1 0 .1.1.1.1.1 1.7 1.8 4.8 2.6 9.2 2.6 7.2 0 10.7-2.1 10.7-6.5v-6.4c.6-1.3.2-2.8-1.1-4zM477.7 31.4h-10.3v4.8h-2.5c-5.2 0-8.3 2.2-8.3 5.8v7.3c0 1.6.6 3 1.6 3.9 0 0 .1.1.2.1.1.1.3.2.4.4l.1.1.1.1.1.1.1.1.1.1c1.3 1.3 3.5 2 6.3 2h13.5v-23.2l-1.4-1.6zM400.8 34.4h10.3v-10.1c0-1.5 1.5-1.9 2.4-1.9h2.4v-7.2h-.3v-.3h-.3v-.3h-.3v-.3h-.3v-.3h-.3v-.3h-.5c-1.1 0-2.4.3-3.5.9l-.6-.6h-10.5v19l1.5 1.4zM400.5 36.2h-11.8v-1.2h-.3v-.3h-.3v-.3h-.3v-.3h-.3v-.3h-10.5v6l-.2-.2c0-.1-.1-.1-.2-.1 0-.1-.1-.1-.2-.1 0-.1-.1-.1-.2-.1 0-.1-.1-.1-.2-.1 0-.1-.1-.1-.2-.1 0-.1-.1-.1-.2-.1 0-.1-.1-.1-.2-.1l-.1-.1-.2-.2c-.2-.2-.4-.4-.7-.5h-.1l-.2-.1-.1-.1-.2-.1-.3-.2-.4-.2v-.1c-2.4-1-5.4-1-6.8-1h-.1c-8.7 0-10.4 3.1-10.4 5.6v.8c0 1.4.3 2.5 1.5 3.5 0 0 0 .1.1.1 0 .1.1.1.1.1 0 .1.1.1.1.1 0 .1.1.1.1.1 0 .1.1.1.1.1 0 .1.1.1.1.1 0 .1.1.1.1.1.5.5 1.1 1 1.9 1.3h-4.6v1.5c0 1.7.6 3 1.7 3.9l.1.1c0 .1.1.1.2.1 0 .1.1.1.2.1 0 .1.1.1.2.1 0 .1.1.1.2.1 0 .1.1.1.2.1 0 .1.1.1.1.1 1.5 1.6 4.5 2.3 9.3 2.3 4.1 0 8.7-.5 10.1-4.1l.5.6.4.4c0 .1.1.1.1.1 0 .1.1.1.1.1 0 .1.1.1.1.1 0 .1.1.1.1.1 0 .1.1.1.1.1 1.5 1.6 4.1 1.8 6.4 1.8h16.2v-3.1l.3.3v.1l.1.1.1.1.1.1.1.1.1.1c1.3 1.3 3.6 2.1 6.5 2.1h13.7v-12.1c0-1.9-.4-3.3-1.5-4.3 0-.1-.1-.1-.1-.1 0-.1-.1-.1-.1-.1 0-.1-.1-.1-.1-.1 0-.1-.1-.1-.1-.1 0-.1-.1-.1-.1-.1l-.1-.2c-.1-.1-.2-.2-.3-.4-1.5-1.5-4.2-2.2-8.4-2.2h-6c-1.9 0-3.5.5-4.8 1.3v-.1h-.4l-.1-1zm-23.5 10.6l-.2-.2c0-.1-.1-.1-.1-.1 0-.1-.1-.1-.1-.1 0-.1-.1-.1-.1-.1 0-.1-.1-.1-.1-.1 0-.1-.1-.1-.1-.1l-.1-.1-.3-.3-.3-.3-.7-.5h2.3v1.9zm13.2 1.9h-1.5v-4.5h1.5v4.5zM356.4 22.8c0-.1-.1-.1-.1-.1 0-.1-.1-.1-.1-.1 0-.1-.1-.1-.1-.1 0-.1-.1-.1-.1-.1 0-.1-.1-.1-.1-.1s-.1 0-.1-.1c-.1-.1-.2-.3-.4-.4-.4-.5-1-.9-1.6-1.3h3.9v-2.5c0-2-.5-3.5-1.6-4.7 0-.1-.1-.1-.1-.1 0-.1-.1-.1-.1-.1 0-.1-.1-.1-.1-.1 0-.1-.1-.1-.1-.1 0-.1-.1-.1-.1-.1 0-.1-.1-.1-.1-.1l-.1-.1-.2-.2c-1.8-1.9-5.2-2.7-10.6-2.7-7.8 0-12.3 2.6-12.3 7.1v.8c0 1.9.5 3.3 1.6 4.4l.4.5c0 .1.1.1.2.1 0 .1.1.1.2.1 0 .1.1.1.2.1 0 .1.1.1.2.1 0 .1.1.1.2.1 0 .1.1.2.2.3.5.5 1.2.9 2 1.5h-4.9v1.5c0 2.2.6 3.8 1.8 4.9l.3.3c0 .1.1.1.2.1 0 .1.1.1.2.1 0 .1.1.1.2.1 0 .1.1.1.2.1 0 .1.1.1.2.1 0 .1.1.1.2.1 2 2.1 5.8 2.7 10.8 2.7 7.6 0 12.2-1.2 12.2-7.2v-1.2c-1.1-1.4-1.5-2.6-2.5-3.6zM399.3 17.5c0-.1-.1-.1-.2-.1 0-.1-.1-.1-.2-.1 0-.1-.1-.1-.2-.1 0-.1-.1-.1-.2-.1 0-.1-.1-.1-.2-.1 0-.1-.1-.1-.2-.1 0-.1-.1-.1-.2-.1l-.1-.1c-1.7-1.8-4.8-2.7-9.3-2.7-7.1 0-10.8 2.2-10.8 6.5v6.4c0 1.8.7 3.2 1.9 4.2l.1.1c0 .1.1.1.2.1 0 .1.1.1.2.1 0 .1.1.1.2.1 0 .1.1.1.2.1 0 .1.1.1.2.1 0 .1.1.1.1.1 1.7 1.7 4.8 2.6 9.4 2.6 8.8 0 10.8-3.6 10.8-6.5v-6.4c-.1-1.6-.7-3-1.7-4zM377.9 17.2c0-.1-.1-.1-.2-.1 0-.1-.1-.1-.2-.1 0-.1-.1-.1-.2-.1 0-.1-.1-.1-.2-.1 0-.1-.1-.1-.2-.1 0-.1-.1-.1-.1-.1l-.3-.3c-1.6-1.7-4.3-2-6.9-2h-13.2v21.8l1.3 1.5h10.3v-3h2.4c5.7 0 8.7-2.1 8.7-6v-7.2c.3-2.1-.3-3.4-1.2-4.2z"/><path d="M425.5 26.5c-.5 0-.7-.1-.7-.1v-5.6000000000000005h3v-6.9h-3v-2.7h-10.4v16.2c0 4.8 4.5 5.3 7.8 5.3h5.7v-6.3h-2.4z"/><path stroke="#000" stroke-width=".299" d="M425.5 26.3h-.6v-5.699999999999999h3v-6.9h-3v-2.4h-10.5v16c0 4.8 4.4 5.5 7.6 5.5h5.8v-6.6h-2.3z" fill="none"/><path d="M443 21.1h5.4v-2c0-5.5-7.6-5.5-10.1-5.5-8.7 0-10.5 3-10.5 5.6v.7c0 2.5 1.2 4.3 6.5 5.7h-6.5v1.6c0 4.2 3.1 5.9 10.5 5.9 5.1 0 10.4-.8 10.4-6.4v-.8c0-2.4-1.3-3.7-5.6-4.9m-4.6 7h-.2c-.1 0-.1 0-.1-.1v-1.3c.3.1.3.3.3.5v.9zm0-9.3v1.2c-.3-.1-.3-.3-.3-.4v-.8s0-.1.1-.1c.2 0 .2 0 .2.1"/><path stroke="#000" stroke-width=".299" d="M443.1 20.9h5.1v-1.9c0-5.5-7.5-5.5-10-5.5-8.7 0-10.4 3-10.4 5.6v.7c0 2.5 1 4.4 6.3 5.9h-6.3v1.5c0 4.2 3.1 5.9 10.5 5.9 5.1 0 10.4-.8 10.4-6.4v-.8c.1-2.3-1.3-3.5-5.6-5zm-4.5 7.1h-.3c-.1 0-.3 0-.3-.1v-1.3c.3.1.6.3.6.5v.9zm0-9.4v1.2c-.3-.1-.6-.3-.6-.4v-.8s.1-.1.3-.1c.2.1.3.1.3.1z" fill="none"/><path d="M312.8 28.8h-10.8v26.4h11.4v-26.4z"/><path stroke="#000" stroke-width=".299" fill="none" d="M312.8 28.7h-10.6v26.3h11.4v-26.3z"/><path d="M333.8 32.4h-9.9v22.8h10.5v-22.8z"/><path stroke="#000" stroke-width=".299" fill="none" d="M333.8 32.3h-9.8v22.7h10.5v-22.7z"/><path d="M323.3 32.4h-9.9v22.8h10.5v-22.8z"/><path stroke="#000" stroke-width=".299" fill="none" d="M323.3 32.3h-9.7v22.7h10.4v-22.7z"/><path d="M435.2 42.8v-6.8h-2.7v-2.4h-10.5v15.9c0 4.8 4 5.6 7.6 5.6h5.6v-6.6h-2.7v-5.699999999999999h2.7z"/><path stroke="#000" stroke-width=".299" d="M435.3 42.8v-6.7h-3v-2.7h-10.5v16.1c0 4.8 4.2 5.5 7.8 5.5h5.7v-6.3h-2.3c-.4 0-.6-.1-.6-.1v-5.8h2.9z" fill="none"/><path d="M390 42.8v-6.8h-3v-2.4h-10.2v15.9c0 4.8 4 5.6 7.5 5.6h5.6v-6.6h-3v-5.6l3.1-.1z"/><path stroke="#000" stroke-width=".299" d="M390.2 42.8v-6.7h-3v-2.7h-10.4v16.1c0 4.8 4.1 5.5 7.7 5.5h5.8v-6.3h-2.4c-.4 0-.5-.1-.6-.1v-5.8h2.9z" fill="none"/><path d="M355.1 36h-9.7v13.8h-.6v-13.799999999999999h-10.5v13.2c0 3.7 2.9 6 7.8 6h13.4v-19.2h-.4z"/><path stroke="#000" stroke-width=".299" d="M355.1 36.2h-9.8v13.8h-.5s-.1-.1-.1-.2v-13.6h-10.2v13c0 3.7 2.7 5.8 7.7 5.8h13.6v-18.8h-.7z" fill="none"/><path d="M371.2 43.2h5.4v-1.9c0-5.5-7.6-5.5-10.2-5.5-8.7 0-10.5 3-10.5 5.5v.8c0 2.5 1 4.4 6.2 5.9h-6.5v1.5c0 4.2 3.2 5.9 10.7 5.9 4.9 0 10.6-.7 10.6-6.4v-.8c-.1-2.3-1.5-3.5-5.7-5m-5.1-2.3s.1-.1.3-.1h.3v1.2c-.3-.1-.6-.3-.6-.4v-.7zm.6 9.5h-.3c-.1 0-.3 0-.3-.1v-1.3c.3.1.6.3.6.5v.9z"/><path stroke="#000" stroke-width=".299" d="M371.1 43.4h5.6v-2.1c0-5.5-7.8-5.5-10.3-5.5-8.7 0-10.6 3-10.6 5.5v.8c0 2.5 1.1 4.2 6.4 5.7h-6.4v1.7c0 4.2 3 5.9 10.5 5.9 4.9 0 10.4-.7 10.4-6.4v-.8c0-2.3-1.3-3.6-5.6-4.8zm-4.9-2.5s0-.1.1-.1h.2v1.2c-.3-.1-.3-.3-.3-.4v-.7zm.3 9.5h-.3c-.1 0-.3 0-.3-.1v-1.3c.6.1.6.3.6.5v.9z" fill="none"/><path d="M445.8 35.8c-7.1 0-10.6 2.2-10.6 6.5v6.3c0 4.4 3.5 6.7 10.6 6.7 7.2 0 10.7-2.1 10.7-6.5v-6.4c-.1-3-1.9-6.6-10.7-6.6m0 4.8s.5 0 .5.2v1.6h-.9v-1.6c0-.1.2-.2.4-.2m.2 9.5s-.1.1-.3.1h-.3v-2.7h.6v2.6z"/><path stroke="#000" stroke-width=".299" d="M445.8 35.8c-7.1 0-10.7 2.2-10.7 6.5v6.3c0 4.4 3.7 6.7 10.7 6.7 7.2 0 10.8-2.1 10.8-6.5v-6.4c0-3-2-6.6-10.8-6.6zm0 4.8s.3 0 .3.2v1.4h-.6v-1.4c0-.1.1-.2.3-.2zm.3 9.6h-.3c-.2 0-.3-.1-.3-.1v-2.9h.6v3z" fill="none"/><path d="M477.2 31.2h-9.9v4.8h-2.5c-5.2 0-8.3 2.2-8.3 5.8v7.3c0 3.7 2.9 6 7.9 6h13.4v-23.9h-.6zm-10.3 18.9v-9c0-.1.1 0 .4 0h-.1v9h.1-.4"/><path stroke="#000" stroke-width=".299" d="M477.2 31.4h-9.8v4.8h-2.6c-5.2 0-8.2 2.1-8.2 5.7v7.3c0 3.7 2.7 5.8 7.7 5.8h13.5v-23.6h-.6zm-10.4 18.6v-8.9c0-.1.3-.1.5-.1h.1v9.3h-.1c-.2 0-.4-.1-.4-.1-.1-.1-.1-.2-.1-.2z" fill="none"/><path d="M413.8 13.6c-1.3 0-2.8.4-4 1.3v-1h-10.5v18.9h10.5v-10c0-1.5 1.4-1.7 2.2-1.7h2.3v-7.5h-.5z"/><path stroke="#000" stroke-width=".299" d="M413.8 13.7c-1.3 0-3 .2-4.2 1.1v-1.1h-10.2v19.2h10.2v-10.1c0-1.5 1.5-1.9 2.4-1.9h2.4v-7.2h-.6z" fill="none"/><path d="M412.2 35.7h-6c-2.5 0-4.5.8-5.7 2.1v-1.8h-10.5v19.2h10.5v-4.2c.9 2.5 3.6 4.1 7.7 4.1h13.8v-13c0-4.5-2.8-6.4-9.8-6.4m-1.2 4.8h.2c.4 0 .3.1.3.2v1.9h-.5v-2.1zm.6 6.9v2.7c-.4 0-.5-.1-.6-.1v-2.3000000000000003c0-.2 0-.4.6-.4m-11.1-2.6c0-1.1.8-1.8 2.2-1.8h1.8c-2.1.9-3.5 2-4.1 3.6l.1-1.8z"/><path stroke="#000" stroke-width=".299" d="M412.2 35.9h-6c-2.5 0-4.3.6-5.8 2v-1.7h-10.2v18.8h10.5v-4c.6 2.5 3.4 4 7.5 4h13.7v-12.9c0-4.5-2.7-6.2-9.7-6.2zm-1.1 4.5c.5 0 .6.3.6.4v1.7h-.6v-2.1zm.6 6.9v2.7h-.6l.1-.1v-2.1c-.1-.3-.1-.5.5-.5zm-11.1-2.5c0-1.1.8-1.7 2.2-1.7h1.8c-2.1.6-3.6 1.8-3.9 3.4l-.1-1.7z" fill="none"/><path d="M349.6 18.7h6.6v-2.2c0-5.2-3.5-7.2-12.2-7.2-7.8 0-12.3 2.6-12.3 7.1v.8c0 3.8 1.9 5.9 7.5 7.4h-7.5v1.5c0 6.2 4.8 7.5 12.5 7.5 7.6 0 12.3-1.2 12.3-7.2v-1.2c0-3.6-2.3-5.3-6.9-6.5m-6.3 8.7v-1.9c.9.3 1.2.4 1.2 1v.8c0 .5-.1.5-.6.5-.5.1-.6 0-.6-.4m1.8-12v2.2c-.9-.3-1.2-.7-1.2-1.3v-.8c0-.3.5-.4.6-.4.2 0 .6.1.6.4"/><path stroke="#000" stroke-width=".299" d="M349.6 18.8h6.4v-2.3c0-5.2-3.3-7.2-12-7.2-7.8 0-12.2 2.6-12.2 7.1v.8c0 3.8 1.8 5.7 7.4 7.2h-7.4v1.6c0 6.2 4.7 7.5 12.4 7.5 7.6 0 12.2-1.2 12.2-7.2v-1.2c0-3.5-2.2-5.1-6.8-6.3zm-6.1 8.5v-1.8c.9.3.9.4.9 1v.8c0 .5.1.5-.4.5-.6.1-.5 0-.5-.5zm1.5-11.8v2.1c-.9-.3-.9-.7-.9-1.3v-.8c0-.3.3-.4.4-.4.3.1.5.1.5.4z" fill="none"/><path d="M388.6 13.5c-7.1 0-10.8 2.2-10.8 6.5v6.4c0 4.3 3.7 6.5 10.8 6.5 8.8 0 10.7-3.6 10.7-6.5v-6.4c0-4.3-3.6-6.5-10.7-6.5m-.4 5.2s.3-.1.4-.1c.2 0 .2.1.5.2v9.2c0 .1-.3.2-.5.2s-.4-.1-.4-.2v-9.3z"/><path stroke="#000" stroke-width=".299" d="M388.7 13.5c-7.1 0-10.8 2.2-10.8 6.5v6.4c0 4.3 3.7 6.5 10.8 6.5 8.8 0 10.7-3.6 10.7-6.5v-6.4c0-4.3-3.6-6.5-10.7-6.5zm-.3 5.2s.1-.1.3-.1c.2 0 .3.1.3.2v9.2c0 .1-.2.2-.3.2-.2 0-.3-.1-.3-.2v-9.3z" fill="none"/><path d="M369.7 13.9h-13.2v21.8h10.5v-3h2.2c5.7 0 8.5-1.9 8.5-5.9v-7.2c0-5.1-4.2-5.7-8-5.7m-2.1 5.1v8.7s-.2.3-.5.3h-.1v-9.3h.1c.2 0 .5.2.5.3"/><path stroke="#000" stroke-width=".299" d="M369.7 13.7h-13v22.1h10.2v-3h2.4c5.7 0 8.7-2.1 8.7-6v-7.2c-.1-5.1-4.5-5.9-8.3-5.9zm-2.3 5.2v8.7s-.1.1-.4.1h-.2v-9h.2c.3.1.4.2.4.2z" fill="none"/><path fill="#fff" d="M425.5 26.5c-.5 0-.7-.1-.7-.1v-5.6000000000000005h3v-6.9h-3v-2.7h-10.4v16.2c0 4.8 4.5 5.3 7.8 5.3h5.7v-6.3h-2.4z"/><path stroke="#000" stroke-width=".299" d="M425.5 26.3h-.6v-5.699999999999999h3v-6.9h-3v-2.4h-10.5v16c0 4.8 4.4 5.5 7.6 5.5h5.8v-6.6h-2.3z" fill="none"/><path fill="#fff" d="M443 21.1h5.4v-2c0-5.5-7.6-5.5-10.1-5.5-8.7 0-10.5 3-10.5 5.6v.7c0 2.5 1.2 4.3 6.5 5.7h-6.5v1.6c0 4.2 3.1 5.9 10.5 5.9 5.1 0 10.4-.8 10.4-6.4v-.8c0-2.4-1.3-3.7-5.6-4.9m-4.6 7h-.2c-.1 0-.1 0-.1-.1v-1.3c.3.1.3.3.3.5v.9zm0-9.3v1.2c-.3-.1-.3-.3-.3-.4v-.8s0-.1.1-.1c.2 0 .2 0 .2.1"/><path stroke="#000" stroke-width=".299" d="M443.1 20.9h5.1v-1.9c0-5.5-7.5-5.5-10-5.5-8.7 0-10.4 3-10.4 5.6v.7c0 2.5 1 4.4 6.3 5.9h-6.3v1.5c0 4.2 3.1 5.9 10.5 5.9 5.1 0 10.4-.8 10.4-6.4v-.8c.1-2.3-1.3-3.5-5.6-5zm-4.5 7.1h-.3c-.1 0-.3 0-.3-.1v-1.3c.3.1.6.3.6.5v.9zm0-9.4v1.2c-.3-.1-.6-.3-.6-.4v-.8s.1-.1.3-.1c.2.1.3.1.3.1z" fill="none"/><path fill="#fff" d="M312.8 28.8h-10.8v26.4h11.4v-26.4z"/><path stroke="#000" stroke-width=".299" fill="none" d="M312.8 28.7h-10.6v26.3h11.4v-26.3z"/><path fill="#fff" d="M333.8 32.4h-9.9v22.8h10.5v-22.8z"/><path stroke="#000" stroke-width=".299" fill="none" d="M333.8 32.3h-9.8v22.7h10.5v-22.7z"/><path fill="#fff" d="M323.3 32.4h-9.9v22.8h10.5v-22.8z"/><path stroke="#000" stroke-width=".299" fill="none" d="M323.3 32.3h-9.7v22.7h10.4v-22.7z"/><path fill="#fff" d="M435.2 42.8v-6.8h-2.7v-2.4h-10.5v15.9c0 4.8 4 5.6 7.6 5.6h5.6v-6.6h-2.7v-5.699999999999999h2.7z"/><path stroke="#000" stroke-width=".299" d="M435.3 42.8v-6.7h-3v-2.7h-10.5v16.1c0 4.8 4.2 5.5 7.8 5.5h5.7v-6.3h-2.3c-.4 0-.6-.1-.6-.1v-5.8h2.9z" fill="none"/><path fill="#fff" d="M390 42.8v-6.8h-3v-2.4h-10.2v15.9c0 4.8 4 5.6 7.5 5.6h5.6v-6.6h-3v-5.6l3.1-.1z"/><path stroke="#000" stroke-width=".299" d="M390.2 42.8v-6.7h-3v-2.7h-10.4v16.1c0 4.8 4.1 5.5 7.7 5.5h5.8v-6.3h-2.4c-.4 0-.5-.1-.6-.1v-5.8h2.9z" fill="none"/><path fill="#fff" d="M355.1 36h-9.7v13.8h-.6v-13.799999999999999h-10.5v13.2c0 3.7 2.9 6 7.8 6h13.4v-19.2h-.4z"/><path stroke="#000" stroke-width=".299" d="M355.1 36.2h-9.8v13.8h-.5s-.1-.1-.1-.2v-13.6h-10.2v13c0 3.7 2.7 5.8 7.7 5.8h13.6v-18.8h-.7z" fill="none"/><path fill="#fff" d="M371.2 43.2h5.4v-1.9c0-5.5-7.6-5.5-10.2-5.5-8.7 0-10.5 3-10.5 5.5v.8c0 2.5 1 4.4 6.2 5.9h-6.5v1.5c0 4.2 3.2 5.9 10.7 5.9 4.9 0 10.6-.7 10.6-6.4v-.8c-.1-2.3-1.5-3.5-5.7-5m-5.1-2.3s.1-.1.3-.1h.3v1.2c-.3-.1-.6-.3-.6-.4v-.7zm.6 9.5h-.3c-.1 0-.3 0-.3-.1v-1.3c.3.1.6.3.6.5v.9z"/><path stroke="#000" stroke-width=".299" d="M371.1 43.4h5.6v-2.1c0-5.5-7.8-5.5-10.3-5.5-8.7 0-10.6 3-10.6 5.5v.8c0 2.5 1.1 4.2 6.4 5.7h-6.4v1.7c0 4.2 3 5.9 10.5 5.9 4.9 0 10.4-.7 10.4-6.4v-.8c0-2.3-1.3-3.6-5.6-4.8zm-4.9-2.5s0-.1.1-.1h.2v1.2c-.3-.1-.3-.3-.3-.4v-.7zm.3 9.5h-.3c-.1 0-.3 0-.3-.1v-1.3c.6.1.6.3.6.5v.9z" fill="none"/><path fill="#fff" d="M445.8 35.8c-7.1 0-10.6 2.2-10.6 6.5v6.3c0 4.4 3.5 6.7 10.6 6.7 7.2 0 10.7-2.1 10.7-6.5v-6.4c-.1-3-1.9-6.6-10.7-6.6m0 4.8s.5 0 .5.2v1.6h-.9v-1.6c0-.1.2-.2.4-.2m.2 9.5s-.1.1-.3.1h-.3v-2.7h.6v2.6z"/><path stroke="#000" stroke-width=".299" d="M445.8 35.8c-7.1 0-10.7 2.2-10.7 6.5v6.3c0 4.4 3.7 6.7 10.7 6.7 7.2 0 10.8-2.1 10.8-6.5v-6.4c0-3-2-6.6-10.8-6.6zm0 4.8s.3 0 .3.2v1.4h-.6v-1.4c0-.1.1-.2.3-.2zm.3 9.6h-.3c-.2 0-.3-.1-.3-.1v-2.9h.6v3z" fill="none"/><path fill="#fff" d="M477.2 31.2h-9.9v4.8h-2.5c-5.2 0-8.3 2.2-8.3 5.8v7.3c0 3.7 2.9 6 7.9 6h13.4v-23.9h-.6zm-10.3 18.9v-9c0-.1.1 0 .4 0h-.1v9h.1-.4"/><path stroke="#000" stroke-width=".299" d="M477.2 31.4h-9.8v4.8h-2.6c-5.2 0-8.2 2.1-8.2 5.7v7.3c0 3.7 2.7 5.8 7.7 5.8h13.5v-23.6h-.6zm-10.4 18.6v-8.9c0-.1.3-.1.5-.1h.1v9.3h-.1c-.2 0-.4-.1-.4-.1-.1-.1-.1-.2-.1-.2z" fill="none"/><path fill="#fff" d="M413.8 13.6c-1.3 0-2.8.4-4 1.3v-1h-10.5v18.9h10.5v-10c0-1.5 1.4-1.7 2.2-1.7h2.3v-7.5h-.5z"/><path stroke="#000" stroke-width=".299" d="M413.8 13.7c-1.3 0-3 .2-4.2 1.1v-1.1h-10.2v19.2h10.2v-10.1c0-1.5 1.5-1.9 2.4-1.9h2.4v-7.2h-.6z" fill="none"/><path fill="#fff" d="M412.2 35.7h-6c-2.5 0-4.5.8-5.7 2.1v-1.8h-10.5v19.2h10.5v-4.2c.9 2.5 3.6 4.1 7.7 4.1h13.8v-13c0-4.5-2.8-6.4-9.8-6.4m-1.2 4.8h.2c.4 0 .3.1.3.2v1.9h-.5v-2.1zm.6 6.9v2.7c-.4 0-.5-.1-.6-.1v-2.3000000000000003c0-.2 0-.4.6-.4m-11.1-2.6c0-1.1.8-1.8 2.2-1.8h1.8c-2.1.9-3.5 2-4.1 3.6l.1-1.8z"/><path stroke="#000" stroke-width=".299" d="M412.2 35.9h-6c-2.5 0-4.3.6-5.8 2v-1.7h-10.2v18.8h10.5v-4c.6 2.5 3.4 4 7.5 4h13.7v-12.9c0-4.5-2.7-6.2-9.7-6.2zm-1.1 4.5c.5 0 .6.3.6.4v1.7h-.6v-2.1zm.6 6.9v2.7h-.6l.1-.1v-2.1c-.1-.3-.1-.5.5-.5zm-11.1-2.5c0-1.1.8-1.7 2.2-1.7h1.8c-2.1.6-3.6 1.8-3.9 3.4l-.1-1.7z" fill="none"/><path fill="#fff" d="M349.6 18.7h6.6v-2.2c0-5.2-3.5-7.2-12.2-7.2-7.8 0-12.3 2.6-12.3 7.1v.8c0 3.8 1.9 5.9 7.5 7.4h-7.5v1.5c0 6.2 4.8 7.5 12.5 7.5 7.6 0 12.3-1.2 12.3-7.2v-1.2c0-3.6-2.3-5.3-6.9-6.5m-6.3 8.7v-1.9c.9.3 1.2.4 1.2 1v.8c0 .5-.1.5-.6.5-.5.1-.6 0-.6-.4m1.8-12v2.2c-.9-.3-1.2-.7-1.2-1.3v-.8c0-.3.5-.4.6-.4.2 0 .6.1.6.4"/><path stroke="#000" stroke-width=".299" d="M349.6 18.8h6.4v-2.3c0-5.2-3.3-7.2-12-7.2-7.8 0-12.2 2.6-12.2 7.1v.8c0 3.8 1.8 5.7 7.4 7.2h-7.4v1.6c0 6.2 4.7 7.5 12.4 7.5 7.6 0 12.2-1.2 12.2-7.2v-1.2c0-3.5-2.2-5.1-6.8-6.3zm-6.1 8.5v-1.8c.9.3.9.4.9 1v.8c0 .5.1.5-.4.5-.6.1-.5 0-.5-.5zm1.5-11.8v2.1c-.9-.3-.9-.7-.9-1.3v-.8c0-.3.3-.4.4-.4.3.1.5.1.5.4z" fill="none"/><path d="M355.3 25.2c0-2.9-1.3-4.5-9.1-6-1.9-.4-3.5-.9-3.5-2.8v-.8c0-1 1-1.6 1.8-1.6 1.2 0 1.8.8 1.8 1.6v2h8.7v-1c0-3.8-1.9-6-11-6-3.3 0-11.1.6-11.1 5.9v.8c0 3.3 1.3 5 9.1 6.7l.6.1c2 .4 3.3.7 3.3 2.5v.8c0 1.2-.6 1.7-1.8 1.7-1.7 0-1.8-1.4-1.8-1.8v-1.4h-9.3v.3c0 4.7 2.9 6.3 11.3 6.3 8.2 0 11.1-1.6 11.1-6v-1.3z"/><path stroke="#000" stroke-width=".299" d="M355.2 25.2c0-2.9-1.2-4.5-8.9-6-1.9-.4-3.4-.9-3.4-2.8v-.8c0-1 .8-1.6 1.6-1.6 1.2 0 1.6.8 1.6 1.6v2.1h8.7v-1.1c0-3.8-1.7-6-10.8-6-3.3 0-11 .6-11 5.9v.8c0 3.3 1.3 5 9 6.7l.4.1c2 .4 3.1.7 3.1 2.5v.8c0 1.2-.5 1.7-1.6 1.7-1.7 0-1.6-1.4-1.6-1.8v-1.6h-9.3v.4c0 4.7 2.7 6.3 11.2 6.3 8.2 0 11-1.6 11-6v-1.2z" fill="none"/><path d="M422 31.5h4.5v-3.9h-1.1c-.6 0-1.9 0-1.9-1.5v-6.6h3v-4.5h-3v-2.7h-8.1v15c0 2.2.9 4.2 6.6 4.2"/><path stroke="#000" stroke-width=".299" d="M422 31.7h4.6v-4.2h-1.2c-.6 0-1.8.1-1.8-1.3v-6.8h3v-4.5h-3v-2.4h-8.1v14.8c.1 2.2.8 4.4 6.5 4.4z" fill="none"/><path fill="#fff" d="M388.6 13.5c-7.1 0-10.8 2.2-10.8 6.5v6.4c0 4.3 3.7 6.5 10.8 6.5 8.8 0 10.7-3.6 10.7-6.5v-6.4c0-4.3-3.6-6.5-10.7-6.5m-.4 5.2s.3-.1.4-.1c.2 0 .2.1.5.2v9.2c0 .1-.3.2-.5.2s-.4-.1-.4-.2v-9.3z"/><path stroke="#000" stroke-width=".299" d="M388.7 13.5c-7.1 0-10.8 2.2-10.8 6.5v6.4c0 4.3 3.7 6.5 10.8 6.5 8.8 0 10.7-3.6 10.7-6.5v-6.4c0-4.3-3.6-6.5-10.7-6.5zm-.3 5.2s.1-.1.3-.1c.2 0 .3.1.3.2v9.2c0 .1-.2.2-.3.2-.2 0-.3-.1-.3-.2v-9.3z" fill="none"/><path d="M398.1 20.1c0-3.5-3.2-5.3-9.5-5.3-6.4 0-9.6 1.7-9.6 5.3v6.4c0 3.5 3.3 5.3 9.6 5.3s9.5-1.8 9.5-5.3v-6.4zm-7.8 7.8c0 .8-.9 1.4-1.7 1.4-.8 0-1.6-.6-1.6-1.4v-9.2c0-.7.8-1.3 1.6-1.3.7 0 1.7.5 1.7 1.3v9.2z"/><path stroke="#000" stroke-width=".299" d="M398.2 20.1c0-3.5-3.2-5.3-9.5-5.3-6.4 0-9.6 1.7-9.6 5.3v6.4c0 3.5 3.3 5.3 9.6 5.3s9.5-1.8 9.5-5.3v-6.4zm-8 7.8c0 .8-.8 1.4-1.5 1.4-.8 0-1.5-.6-1.5-1.4v-9.2c0-.7.6-1.3 1.5-1.3.7 0 1.5.5 1.5 1.3v9.2z" fill="none"/><path d="M447.5 25.9c0-1.5-.5-2.8-7.5-4.4-1.9-.5-3.1-.7-3.1-2v-.8c0-.7.5-1.2 1.3-1.2 1.1 0 1.4.7 1.4 1.2v1.3h7.5v-.8c0-1.9-1-4.3-8.9-4.3-4.2 0-9.3.8-9.3 4.4v.7c0 1.9.5 3.6 7.7 5.3 1.8.5 3.1.8 3.1 2.1v.9c0 .4 0 1.2-1.4 1.2-.8 0-1.3-.5-1.3-1.2v-1.3h-8.1v.4c0 2.9 1.6 4.7 9.3 4.7 6.5 0 9.2-1.5 9.2-5.2l.1-1z"/><path stroke="#000" stroke-width=".299" d="M447.5 26c0-1.8-.5-2.9-7.5-4.5h-.1c-1.9-.5-3.1-.8-3.1-2.1v-.8c0-.7.6-1.2 1.5-1.2 1.1 0 1.5.7 1.5 1.2v1.1h7.2v-.7c0-1.9-.8-4.3-8.8-4.3-4.2 0-9.2.8-9.2 4.4v.7c0 1.9.5 3.6 7.7 5.3 1.8.5 3.1.8 3.1 2.1v.9c0 .4-.2 1.2-1.5 1.2-.8 0-1.5-.5-1.5-1.2v-1.1h-7.8v.3c0 2.9 1.6 4.7 9.3 4.7 6.5 0 9.2-1.5 9.2-5.2v-.8z" fill="none"/><path d="M303.2 30h9v23.9h-9z"/><path stroke="#000" stroke-width=".299" fill="none" d="M303.4 29.9h9v23.9h-9z"/><path d="M325.1 33.6h8.1v20.3h-8.1z"/><path stroke="#000" stroke-width=".299" fill="none" d="M325.2 33.5h8.1v20.3h-8.1z"/><path d="M314.6 33.6h8.1v20.3h-8.1z"/><path stroke="#000" stroke-width=".299" fill="none" d="M314.8 33.5h8.1v20.3h-8.1z"/><path d="M429.5 54h4.5v-4.2h-1c-.4 0-1.7.1-1.7-1.3v-6.8h2.7v-4.5h-2.7v-2.4h-8.1v14.7c0 3 1.8 4.4 6.4 4.4"/><path stroke="#000" stroke-width=".299" d="M429.6 53.8h4.5v-3.9h-1.1c-.4 0-1.8-.1-1.8-1.4v-6.9h3v-4.2h-3v-2.7h-8.1v14.9c0 3 2 4.2 6.5 4.2z" fill="none"/><path d="M384.3 54h4.5v-4.2h-1.1c-1.5 0-1.9-.7-1.9-1.3v-6.8h3v-4.5h-3v-2.4h-7.8v14.7c0 3.1 1.8 4.5 6.3 4.5"/><path stroke="#000" stroke-width=".299" d="M384.4 53.8h4.6v-3.9h-1.2c-1.5 0-1.8-.8-1.8-1.4v-6.9h3v-4.2h-3v-2.7h-8.1v14.9c0 3 1.9 4.2 6.5 4.2z" fill="none"/><path d="M342.1 54h12.3v-16.8h-7.8v13.8h-1.7c-.6 0-1.3-.2-1.3-1.3v-12.5h-8.1v12c.1 4 4.2 4.8 6.6 4.8"/><path stroke="#000" stroke-width=".299" d="M342.2 53.8h12.4v-16.4h-8.1v13.8h-1.5c-.6 0-1.4-.3-1.4-1.4v-12.4h-7.8v11.8c-.1 4 3.9 4.6 6.4 4.6z" fill="none"/><path d="M375.6 48.3c0-1.8-.5-2.9-7.5-4.5h-.1c-1.9-.5-3.1-.8-3.1-2v-.8c0-.7.6-1.2 1.5-1.2 1.1 0 1.5.7 1.5 1.2v1h7.5v-.7c0-2.9-2.9-4.3-9-4.3-4.3 0-9.3.7-9.3 4.3v.8c0 1.5 0 3.4 7.6 5.3 1.8.5 3.1.8 3.1 2.1v.9c0 .4-.2 1.2-1.5 1.2-.8 0-1.5-.5-1.5-1.2v-1.1h-8.1v.3c0 2.9 1.7 4.7 9.5 4.7 6.6 0 9.4-1.5 9.4-5.2v-.8z"/><path stroke="#000" stroke-width=".299" d="M375.5 48.1c0-1.5-.5-2.8-7.5-4.4-1.9-.5-3-.7-3-2v-.8c0-.7.5-1.2 1.3-1.2 1.1 0 1.4.7 1.4 1.2v1.2h7.8v-.9c0-2.9-3-4.3-9.1-4.3-4.3 0-9.4.7-9.4 4.3v.8c0 1.5 0 3.4 7.6 5.3 1.8.5 3.1.8 3.1 2.1v.9c0 .4-.2 1.2-1.5 1.2-.8 0-1.5-.5-1.5-1.2v-1.3h-7.8v.5c0 2.9 1.5 4.7 9.3 4.7 6.6 0 9.2-1.5 9.2-5.2l.1-.9z" fill="none"/><path fill="#fff" d="M369.7 13.9h-13.2v21.8h10.5v-3h2.2c5.7 0 8.5-1.9 8.5-5.9v-7.2c0-5.1-4.2-5.7-8-5.7m-2.1 5.1v8.7s-.2.3-.5.3h-.1v-9.3h.1c.2 0 .5.2.5.3"/><path stroke="#000" stroke-width=".299" d="M369.7 13.7h-13v22.1h10.2v-3h2.4c5.7 0 8.7-2.1 8.7-6v-7.2c-.1-5.1-4.5-5.9-8.3-5.9zm-2.3 5.2v8.7s-.1.1-.4.1h-.2v-9h.2c.3.1.4.2.4.2z" fill="none"/><path d="M376.5 19.7c0-3.3-1.9-4.6-6.9-4.6h-12v19.4h8.1v-3h3.4c5 0 7.3-1.5 7.3-4.7v-7.1zm-7.7 8c0 .8-.8 1.4-1.7 1.4h-1.3v-11.6h1.2c.9 0 1.7.7 1.7 1.4v8.8z"/><path stroke="#000" stroke-width=".299" d="M376.7 19.7c0-3.3-2.1-4.7-7-4.7h-11.8v19.7h7.8v-3h3.6c5 0 7.5-1.6 7.5-4.8v-7.2zm-8.1 8c0 .8-.7 1.3-1.6 1.3h-1.4v-11.4h1.4c.9 0 1.6.5 1.6 1.3v8.8z" fill="none"/><path d="M455.2 48h-7.8v2.2c0 .6-.5 1.2-1.6 1.2-.9 0-1.6-.5-1.6-1.2v-3.9h11.1v-3.8c0-3.6-3.2-5.4-9.5-5.4s-9.4 1.7-9.4 5.3v6.3c0 3.7 3 5.5 9.4 5.5 8.5 0 9.5-3 9.5-5.3v-.9zm-10.9-7.2c0-.9.7-1.4 1.5-1.4.9 0 1.6.5 1.6 1.3v2.8h-3.3v-2.7h.2z"/><path stroke="#000" stroke-width=".299" d="M455.4 48.1h-8.1v2c0 .6-.4 1.2-1.5 1.2-.9 0-1.5-.5-1.5-1.2v-4.1h11.1v-3.7c0-3.6-3.3-5.4-9.6-5.4s-9.5 1.7-9.5 5.3v6.3c0 3.7 3.2 5.5 9.5 5.5 8.5 0 9.6-3 9.6-5.3v-.6zm-11.1-7.4c0-.6.6-1.3 1.5-1.3s1.5.6 1.5 1.4v2.6h-3v-2.7z" fill="none"/><path d="M457.6 49.2c0 4 4.2 4.8 6.7 4.8h12.2v-21.6h-8.1v4.8h-3.7c-2.1 0-7.1.5-7.1 4.6v7.4zm8.1-8.1c0-.6.5-1.2 1.6-1.2h1.2v11.4h-1.1c-1.4 0-1.6-.8-1.6-1.3l-.1-8.9z"/><path stroke="#000" stroke-width=".299" d="M457.8 49.2c0 4 4 4.6 6.5 4.6h12.3v-21.2h-8.1v4.8h-3.8c-2.1 0-7 .4-7 4.5v7.3zm7.9-8.2c0-.6.5-1.2 1.6-1.2h1.2999999999999998v11.7h-1.3c-1.4 0-1.7-.9-1.7-1.4v-9.1h.1z" fill="none"/><path d="M413.1 19.9v-5c-1.2.1-2.5.7-3.4 1.8-1 1.1-1.1 1.4-1.1 1.4v-2.9h-8.1v16.5h8.1v-8.8c0-1.8 1.3-2.9 3.4-2.9h1.1z"/><path stroke="#000" stroke-width=".299" d="M413.2 19.7v-4.9c-1.2.1-2.6.7-3.6 1.8s-1.2 1.4-1.2 1.4v-3h-7.8v16.8h7.8v-8.9c0-1.8 1.5-3.1 3.6-3.1h1.2z" fill="none"/><path d="M408.3 54h12.6v-11.9c0-2.7-.7-5.2-8.7-5.2h-6c-2.8 0-4.9 1.6-5.7 2.5-.7.7-.8.9-1.1 1.6v-3.7h-8.1v16.7h8.1v-9.2c0-1.8 1.4-3.1 3.4-3.1h7v-2.4h1.4c.9 0 1.5.6 1.5 1.4v3.1h-4.1c-2.2 0-7.2.3-7.2 4.4v.9c0 4.2 4.7 4.8 6.8 4.8m1.6-6.2c0-1 .7-1.5 1.9-1.5h1.1v5.1h-1.2c-.9 0-1.8-.3-1.8-1.5v-2.1z"/><path stroke="#000" stroke-width=".299" d="M408.2 53.8h12.5v-11.7c0-2.7-.6-5-8.5-5h-6c-2.8 0-5 1.5-5.8 2.4-.7.7-.6.8-1.2 1.5v-3.6h-7.8v16.5h8.1v-9.1c0-1.8 1.2-2.9 3.3-2.9h7.2v-2.7h1.3c.9 0 1.7.7 1.7 1.6v2.9h-4.3c-2.2 0-7.1.5-7.1 4.6v.9c-.1 4.2 4.5 4.6 6.6 4.6zm1.7-6.1c0-1 .6-1.6 1.7-1.6h1.2v5.1h-1.3c-.9 0-1.7-.1-1.7-1.3v-2.2z" fill="none"/><path d="M481.1 32.6c.6 0 1.1.5 1.1 1.1 0 .6-.5 1.1-1.1 1.1-.6 0-1.1-.5-1.1-1.1 0-.6.5-1.1 1.1-1.1m0 2c.5 0 .9-.4.9-.9s-.4-.9-.9-.9-.9.4-.9.9.4.9.9.9m-.4-1.6h.5c.3 0 .4.1.4.4 0 .2-.1.3-.3.3l.4.5h-.2l-.3-.6h-.2v.6h-.3v-1.2zm.2.6h.2c.2 0 .3 0 .3-.2s-.1-.2-.3-.2h-.3v.4h.1z"/><g fill-rule="evenodd" clip-rule="evenodd"><path d="M239.6 59.1h-57.3v-57.3h57.3v57.3z"/><path fill="#fff" d="M239.2 58.7h-56.5v-56.5h56.5v56.5z"/><path d="M198 5.2c-4.6 1.8-8.9 4.6-12.3 8.8v-8.8h12.3zM236.2 8.4c-3.1-.7-5.8.6-8.3 2-5.3-4.5-13.6-2.5-19.3-.4-3.2 1.3-7.7 3.8-7.6 7.9 0 1.4 1 2.6 2.2 3.3l2.8 1.3c.1.1.1.2.1.3-.6.5-1.3.6-2.1.8-3.3.6-6.3 1.6-9.2 3-1.4.6-2.7 1.4-4 2.2-1.8-1.1-3.6-2.4-5.2-4.1v-8.8c2.9-4.3 7.3-7.6 11.7-9.4l3.3-1.4h35.5v3.3h.1zM226.9 11c-7.9 4.7-12.5 12.9-16.1 20.4-5.7.7-11.9.5-17-1.1 3.3-3.8 7.8-5 12.2-6.3.5-.2 1.2-.5 1.2-1.2s-.9-1-1.3-1.6c-1.1-1.1-1.3-2.9-.8-4.4 1.4-4.4 6.1-6.3 10.1-7.4 3.8-.9 8.6-.9 11.7 1.6zM236.2 9.5v8.5c-5.9 6.7-13.2 10.6-21.2 12.7 3.4-6.5 7.2-12.8 13-18.3.9 1.2 1.3 2.9.7 4.4-.4 1.3-1.3 2.8-2.8 3.3-.5.1-1.2 0-1.5.6-.1.2-.1.4 0 .6.2.3.5.4.9.4 2.3-.2 3.8-2.7 4.4-4.6.6-1.9 0-4-.9-5.6 2.2-1.4 4.7-2.7 7.4-2zM236.2 45c-4.7 3.2-10.2 5.2-16.3 4.1-1.8-.3-3.7-.8-5.4-1.3 3.2-2.8 6.2-6 6.2-10.3-.2-1.3-.3-2.8-1.5-3.6-.2-.1-.5-.1-.7 0-.2.1-.4.4-.4.6.1.6.7 1 1 1.5.8 1.4.4 3.3-.2 4.7-1.1 2.5-3.3 4.7-5.5 6.7-2.7-1.2-5.4-2.6-7.8-4.3 3.8-3.2 6.5-7.1 8.7-11 8.2-1.7 15.6-5.3 22-11.6v24.5h-.1zM189.9 29.6c-1.6 1.3-3.1 2.9-4.2 4.5v-7.7c1.4 1.1 2.7 2.3 4.2 3.2zM210.3 32.5c-1.6 3.5-3.2 6.9-5.9 9.8-2.5-1.6-5.1-3.5-8.4-2.8-.9.2-1.9.9-2.3 1.9-.4.8-.2 2 .3 2.7 1.2 1.3 2.9 1.7 4.7 1.7 2.2 0 4.1-.8 5.9-2 2.4 1.6 4.8 3.2 7.3 4.6-4.1 2.2-8.9 3.6-14 2.8-3.8-.6-8-3.5-8.8-7.4-1-4.8 1.1-9.1 4-12.6 5.2 1.7 11.4 2 17.2 1.3zM203.6 43c-2.2 1.7-5.7 2.3-8.2.9-.6-.5-.9-1.2-.7-2 .3-1 1.3-1.4 2.2-1.5 2.6-.1 4.6 1.4 6.7 2.6zM202.2 52.6c3.9-.4 7.4-1.8 10.6-3.6 4.6 2.4 10.4 4.3 15.9 2.4 2.7-.9 5.2-2.4 7.5-4.5v8.7h-50.5v-9.4c4.4 4.7 10 7 16.5 6.4zM188 68.8h-6.2v-.5h6.2v.5zM169 72l.2.4-.7.3c-.3-.8-1-1.6-1.9-1.7-.9-.2-1.8.1-2.3.8-.4.5-.4 1.4-.1 1.9 1.6 2.2 5.8 2.6 5.3 6.1-.1 1.2-1.2 2.2-2.3 2.6-1.3.5-2.9.3-3.9-.5-.6-.5-1-1.1-1.2-1.7.3-.1.5-.2.8-.2.3.7 1 1.6 1.8 1.8 1.2.3 2.4 0 3.2-.9.4-.6.4-1.4.1-2.1-1.3-2.2-4.2-2.2-5.3-4.6-.3-1.1 0-2.2.8-3 1-.9 2.6-1.2 3.9-.7.6.2 1.3.8 1.6 1.5zM159.4 71.3h-4.5l-.1 4.3h4v.8h-3.9v5.2h4.5v.8h-6.1v-11.9h6.1v.8zM179.5 71.3h-3.4v11.1h-1.5v-11.1h-3.4v-.8h8.3v.8zM188.3 71.3h-4.6v4.3h4v.8h-4v5.2h4.6v.8h-6.2v-11.9h6.2v.8zM198.1 71.3h-4.5v4.3h3.9v.8h-3.9v5.2h4.4v.8h-6v-11.9h6.1v.8zM208.2 81.6h4.5v.8h-6v-11.9h1.5v11.1zM225.3 82.4h-1.9c-.7-1.7-1.4-3.4-2.2-5.2h-3.9l-2.3 5.2h-1l5.4-11.9h.6l5.3 11.9zM228.9 78.9c.1 1.1.6 2.1 1.6 2.6.9.6 2.5.5 3.4-.1 1.5-1 1.6-2.7 1.5-4.4v-6.5h.9v8.5c-.1 1.5-1.3 3-2.7 3.5-1.7.5-3.7.3-4.9-1-.8-.9-1.2-2-1.2-3.2v-7.7h1.6l-.2 8.3zM245.9 71c2.2.8 3.5 3.1 3.5 5.5 0 2.2-1.2 4.3-3.2 5.3-1.7 1-4.1.5-6.2.6v-11.9c2 .1 4.2-.3 5.9.5zM258.6 71.3h-4.5v4.3h3.9v.8h-3.9v5.2h4.5v.8h-6.1v-11.9h6.1v.8zM268.6 71.8c.7.8.7 2.2.2 3.2-.5.8-1.3 1.2-2.1 1.4v.1l2.8 5.9h-1.6l-2.7-5.7h-1.6v5.7h-1.5v-11.9c2.4.1 5-.5 6.5 1.3z"/><path fill="#fff" d="M247.1 73.7c.9 2.1.7 5.1-.9 6.8-1.2 1.2-2.9 1.2-4.6 1.2v-10.4c2.2-.2 4.5.2 5.5 2.4zM267.5 72.6c.3.6.3 1.6 0 2.2-.8 1.3-2.3 1.3-3.7 1.3v-4.7c1.4-.1 3-.2 3.7 1.2zM217.8 76.4l1.6-3.5 1.5 3.5h-3.1z"/></g><g fill-rule="evenodd" clip-rule="evenodd"><path d="M83.1 36c4.5 0 8.1-3.6 8.1-8.1s-3.6-8.1-8.1-8.1-8.1 3.6-8.1 8.1c0 4.4 3.6 8.1 8.1 8.1zM83.2 6.6c-9.3 0-17.2 6-20 14.3.1-.8.2-1.7.2-2.7 0-3.1-1.8-6.4-4.3-8.2-2.4-1.7-4.7-2.7-7.6-2.7h-18.4v41.8h17.2c3.4 0 6.3-1.3 9.2-3.3 2.7-1.9 4.4-5.3 4.4-8.6v-.5c3.4 7.3 10.7 12.4 19.3 12.4 11.7 0 21.2-9.5 21.2-21.2 0-11.8-9.5-21.3-21.2-21.3zm-39.4 9.7h4.5c2.2 0 4.5.4 4.5 3.2.2 2.5-1.3 4-4.4 4h-4.6v-7.2zm8.3 22.5c-.9.8-2.2.7-3.3.7h-5v-7.7h4.6c2.8 0 5.1.7 5.2 3.9 0 1.1-.7 2.5-1.5 3.1zm10.1-8.1c-.8-1.1-2-2.1-3.7-3.1 2-1 3.2-2.3 4-3.9-.3 1.3-.4 2.7-.4 4.1-.1 1 0 2 .1 2.9zm20.9 8.2c-6.1 0-11-4.9-11-11s4.9-11 11-11 11 4.9 11 11-4.9 11-11 11zM19.9 22.6h-8.6v-15.4h-10.7v41.9h10.6v-16.3h8.7v16.3h10.8v-41.9h-10.8v15.4zM100.1 46.7c-.7 0-1.3.5-1.3 1.2s.6 1.2 1.3 1.2c.7 0 1.3-.5 1.3-1.2s-.6-1.2-1.3-1.2zm0 2.2c-.5 0-.9-.4-.9-.9s.4-.9.9-.9.9.4.9.9-.4.9-.9.9zM100.3 48.1c.2 0 .3-.1.3-.4 0-.3-.2-.4-.6-.4h-.5v1.3h.3v-.6h.1l.3.6h.4l-.3-.5zm-.2-.2h-.2v-.3h.2c.1 0 .2 0 .2.1s-.1.2-.2.2z"/></g><path d="M344.8 118.8c.5.8.6 1.8.3 2.8-1.2 4.4-4.8 9.1-2.2 13.6 1.3 2.3 5.4 2.3 7 .5 1.2-1.3-1.2.3-1.6-2-.9-4.7 3.7-9.7 1.4-15.3 6.1-4.2 13-7.6 16.9-14.5.5-.8.7-1.9.2-2.8-.5-1.1-1.6-1.8-2.9-1.5-1 .2-1.9.9-2.5 1.6-4.7 5.3-9.1 11.5-15.6 15.7l-1 1.9zM344.5 118.4c-3.2 4.6-5.2 10.5-10 14.5-1.1.9-2.6 1.1-3.9.6-1.3-.6-1.7-2.2-1.2-3.4 2.7-6.9 11-9.3 13.1-16.4 0-.2-.2-.4-.6-.3-3.8 1.2-4.6 6.5-8.5 7.7-.9.3-2 .1-2.7-.7-.9-1.3-.2-3 .6-4.1 2.3-2.7 5.4-4 8.6-5.6l2.2-1.1c3.3-1.7 5.6-4.3 9.2-4.3.4.1.6.7.4 1.1-2.3 3.6-4.2 6.7-6.3 10.3 0-.1-1 1.6-.9 1.7"/><path d="M442.3 108.7c1.6.1 2.3.2 3 2.1.3.8.2 1.3 0 2.1-.3 1.6-3.8 5.1-5.4 4.1-.3-.2.3-1 .7-1.6.3-.4.2-1 0-1.2-1.6-1.4-1.4-2.6-1-3.7.4-.9 1.9-1.8 2.7-1.8zM420.4 139.9c1.6-1.2 2.7-3 3.5-4.2.2-.3-.3.1-1.1.3-1 .3-4.9 3-4.4 4.5l.4.3c.6-.2 1.1-.5 1.6-.9zm23.7-10.8c2-1.5 3.1-5 2.3-7.5-1.4.5-3.9 2.6-5.6 4.2-2 1.9-.3.4.7.7.9.3 2.3 1.6 1.6 2.3-.2.2.5.6 1 .3zm-10.6-12.4c1-.1 1.3 1.7.4 2-2.8 1.2-7.9 2.6-8.1 7 0 .3.7 1.1 1.7.7 3-1.3 3.8-5 6.5-7.1 1.5-1.2 3 .5 2.4 2-.7 1.9-1.8 3.6-2.9 5.4-.5.8.6.3.8.2 5.8-3.5 9.8-9 16.2-11.4 1.1-.4 2.5-.3 3.5.8.4.4.6 1.1.3 1.7-.5 1-1.7.8-2.7 1-.4.1-.8.5-.9.9l-.6 7.1c-.7 2.2-1.9 4.1-4 5.6-1.9 1.3-4.2 1.6-6.3.9-.7-.2-1.2-.6-1.7-1.2-2.9-3.4 1.8-5.5-.9-4-2.1 1.2-6.1 3.3-7.5 5-2.4 3-4.2 6.1-7 8.4-2 1.7-4.1 3.2-6.9 2.6-1.1-.3-1.8-1.3-1.8-2.2-.2-7 9.2-8.6 13-11.9-.4-.2-2.2 1.2-3.8 1.1-.8 0-2-.2-2.7-1.2-1.1-1.7-.8-3.5 0-5.1 2.6-4.4 7.5-8 13-8.3zM358.7 123.6c.7-.9 1.3-2 1.4-3.1 0-.6 0-.7-.6-.7-.9.1-3.9 3.5-3.5 5.5.1.3 1.2-.1 1.3-.2.5-.4 1.1-1 1.4-1.5zm15.5-7.5c1.5-2 2.7-3.7 3.3-5.1 0-.1-.2-.6-.6-.5-1.9.1-4.7 3.8-6.2 6.5-.5 1-1.5 3.4-1.3 4 .5.3 3.5-3.1 4.8-4.9zm12.8-.5c2.1-2.8 4.6-6.7 3.5-6.9-1.3 0-6.1 5.1-7.8 10.3-.1.3-.2 1-.1.9.8-.2 3.2-2.6 4.4-4.3zm-26.4.9c1.9-.5 3.4 1.1 3.2 2.8-.4 3.9-2.3 6.2-6 9-.4.3.1.5.3.6 2.5 0 5.8-2.8 6.1-3.6.4-1.2.8-3.3 1.2-4.3.3-1 .9-2.1 1.3-3 2.9-6 9.4-14.9 14.7-12.5 1.2.5 1.3 1.5.9 3.1-2 7.5-8.3 13.6-12.7 16.9-2.9 2.2 3.7 1.9 5.5.5.5-.4 1.5-.9 1.6-1.6 1.3-7.1 8.9-20.7 17.8-21.7.9-.1 1.7.3 1.9 1.7.3 3.7-1.6 5.7-3.4 8.7-3.1 5.2-7 8.3-10.9 12.3-.7.7-.5 2.6 1.5 2.8.9.1 1.7-.4 2.4-.4-.1 3.3-3.3 5.9-6.4 5.2-1.5-.4-2.8-1.7-2.8-2.9.1-1.8-.3-.8-.5-.6-3 2.6-9.1 5-11.7.6-2 .5-4.5 3-7.3 2.7-1.9-.2-3.7-.6-4.7-2-.4-.5-1.6.6-2.5.1-1.2-.6-.8-1.3-.3-1.8.6-.7 2.2-.7 2.3-1.9.4-4.9 3.7-9.5 8.5-10.7zM402.8 140c1.1-.8 4.4-4.3 3.5-4.2-1 .1-4.4 2.1-5.5 3.6-.4.5-.1 1 .4 1.1.6.1 1.2-.2 1.6-.5zm13.7-21.5c-1.6.3-6.1 3.6-7.7 6.1-.3.6-.5 1.3-.3 1.9.3.6.9.8 1.6.6 3.3-1.2 3.9-5 5.8-7.4.3-.7 3.5-3.3 4.5-1.5 1.2 2.1-2.9 7.3-5 10.8-.2.3-.2.7.2.5 1-.4 2.1-1.6 2.7-2 1.5.7-2.2 6-6.5 7.1-1.2.3-4.5 9.8-13.8 9.6-1.9 0-2.3-2.6-1.4-4.3 2.4-4.4 8.8-6.9 11.8-7.8.1 0 1.1-1 1.3-1.5.1-.5-.1-.3-.3-.2-2.1 1-4.1 1.4-5.7.2-3.2-2.3-.1-7.2 2.6-9.2-1.6.2-2.9.1-4.1-.6-.3-.2-.8.9-.9 1.7-.5 4.2-3.5 7.7-6.9 9.8-1.5.9-3.1 1-4.7.5-1.7-.6-2.7-2.1-2.9-3.7-.6-5.8 4.1-11.1 9.9-12 1-.2 1.7.2 2.1 1.3l-.2.2c-2.7.9-4.7 3.6-5.5 5.6-.4 1-1.2 3.7.9 3.3 3.3-.6 4.9-5.3 4.4-7.6v-.7c.9-.6 1.8-1.4 2-1.4h.1c1.2-.1 3.5 1 5.2 1.1 4.2.4 6.4-2.5 9.8-1.8.3.1.5.3.8.5.3.2.4.9.2.8.2.1.1.1 0 .1zM344.8 118.8c.5.8.6 1.8.3 2.8-1.2 4.4-4.8 9.1-2.2 13.6 1.3 2.3 5.4 2.3 7 .5 1.2-1.3-1.2.3-1.6-2-.9-4.7 3.7-9.7 1.4-15.3 6.1-4.2 13-7.6 16.9-14.5.5-.8.7-1.9.2-2.8-.5-1.1-1.6-1.8-2.9-1.5-1 .2-1.9.9-2.5 1.6-4.7 5.3-9.1 11.5-15.6 15.7l-1 1.9zM344.5 118.4c-3.2 4.6-5.2 10.5-10 14.5-1.1.9-2.6 1.1-3.9.6-1.3-.6-1.7-2.2-1.2-3.4 2.7-6.9 11-9.3 13.1-16.4 0-.2-.2-.4-.6-.3-3.8 1.2-4.6 6.5-8.5 7.7-.9.3-2 .1-2.7-.7-.9-1.3-.2-3 .6-4.1 2.3-2.7 5.4-4 8.6-5.6l2.2-1.1c3.3-1.7 5.6-4.3 9.2-4.3.4.1.6.7.4 1.1-2.3 3.6-4.2 6.7-6.3 10.3 0-.1-1 1.6-.9 1.7"/><path d="M442.3 108.7c1.6.1 2.3.2 3 2.1.3.8.2 1.3 0 2.1-.3 1.6-3.8 5.1-5.4 4.1-.3-.2.3-1 .7-1.6.3-.4.2-1 0-1.2-1.6-1.4-1.4-2.6-1-3.7.4-.9 1.9-1.8 2.7-1.8zM420.4 139.9c1.6-1.2 2.7-3 3.5-4.2.2-.3-.3.1-1.1.3-1 .3-4.9 3-4.4 4.5l.4.3c.6-.2 1.1-.5 1.6-.9zm23.7-10.8c2-1.5 3.1-5 2.3-7.5-1.4.5-3.9 2.6-5.6 4.2-2 1.9-.3.4.7.7.9.3 2.3 1.6 1.6 2.3-.2.2.5.6 1 .3zm-10.6-12.4c1-.1 1.3 1.7.4 2-2.8 1.2-7.9 2.6-8.1 7 0 .3.7 1.1 1.7.7 3-1.3 3.8-5 6.5-7.1 1.5-1.2 3 .5 2.4 2-.7 1.9-1.8 3.6-2.9 5.4-.5.8.6.3.8.2 5.8-3.5 9.8-9 16.2-11.4 1.1-.4 2.5-.3 3.5.8.4.4.6 1.1.3 1.7-.5 1-1.7.8-2.7 1-.4.1-.8.5-.9.9l-.6 7.1c-.7 2.2-1.9 4.1-4 5.6-1.9 1.3-4.2 1.6-6.3.9-.7-.2-1.2-.6-1.7-1.2-2.9-3.4 1.8-5.5-.9-4-2.1 1.2-6.1 3.3-7.5 5-2.4 3-4.2 6.1-7 8.4-2 1.7-4.1 3.2-6.9 2.6-1.1-.3-1.8-1.3-1.8-2.2-.2-7 9.2-8.6 13-11.9-.4-.2-2.2 1.2-3.8 1.1-.8 0-2-.2-2.7-1.2-1.1-1.7-.8-3.5 0-5.1 2.6-4.4 7.5-8 13-8.3zM358.7 123.6c.7-.9 1.3-2 1.4-3.1 0-.6 0-.7-.6-.7-.9.1-3.9 3.5-3.5 5.5.1.3 1.2-.1 1.3-.2.5-.4 1.1-1 1.4-1.5zm15.5-7.5c1.5-2 2.7-3.7 3.3-5.1 0-.1-.2-.6-.6-.5-1.9.1-4.7 3.8-6.2 6.5-.5 1-1.5 3.4-1.3 4 .5.3 3.5-3.1 4.8-4.9zm12.8-.5c2.1-2.8 4.6-6.7 3.5-6.9-1.3 0-6.1 5.1-7.8 10.3-.1.3-.2 1-.1.9.8-.2 3.2-2.6 4.4-4.3zm-26.4.9c1.9-.5 3.4 1.1 3.2 2.8-.4 3.9-2.3 6.2-6 9-.4.3.1.5.3.6 2.5 0 5.8-2.8 6.1-3.6.4-1.2.8-3.3 1.2-4.3.3-1 .9-2.1 1.3-3 2.9-6 9.4-14.9 14.7-12.5 1.2.5 1.3 1.5.9 3.1-2 7.5-8.3 13.6-12.7 16.9-2.9 2.2 3.7 1.9 5.5.5.5-.4 1.5-.9 1.6-1.6 1.3-7.1 8.9-20.7 17.8-21.7.9-.1 1.7.3 1.9 1.7.3 3.7-1.6 5.7-3.4 8.7-3.1 5.2-7 8.3-10.9 12.3-.7.7-.5 2.6 1.5 2.8.9.1 1.7-.4 2.4-.4-.1 3.3-3.3 5.9-6.4 5.2-1.5-.4-2.8-1.7-2.8-2.9.1-1.8-.3-.8-.5-.6-3 2.6-9.1 5-11.7.6-2 .5-4.5 3-7.3 2.7-1.9-.2-3.7-.6-4.7-2-.4-.5-1.6.6-2.5.1-1.2-.6-.8-1.3-.3-1.8.6-.7 2.2-.7 2.3-1.9.4-4.9 3.7-9.5 8.5-10.7zM402.8 140c1.1-.8 4.4-4.3 3.5-4.2-1 .1-4.4 2.1-5.5 3.6-.4.5-.1 1 .4 1.1.6.1 1.2-.2 1.6-.5zm13.7-21.5c-1.6.3-6.1 3.6-7.7 6.1-.3.6-.5 1.3-.3 1.9.3.6.9.8 1.6.6 3.3-1.2 3.9-5 5.8-7.4.3-.7 3.5-3.3 4.5-1.5 1.2 2.1-2.9 7.3-5 10.8-.2.3-.2.7.2.5 1-.4 2.1-1.6 2.7-2 1.5.7-2.2 6-6.5 7.1-1.2.3-4.5 9.8-13.8 9.6-1.9 0-2.3-2.6-1.4-4.3 2.4-4.4 8.8-6.9 11.8-7.8.1 0 1.1-1 1.3-1.5.1-.5-.1-.3-.3-.2-2.1 1-4.1 1.4-5.7.2-3.2-2.3-.1-7.2 2.6-9.2-1.6.2-2.9.1-4.1-.6-.3-.2-.8.9-.9 1.7-.5 4.2-3.5 7.7-6.9 9.8-1.5.9-3.1 1-4.7.5-1.7-.6-2.7-2.1-2.9-3.7-.6-5.8 4.1-11.1 9.9-12 1-.2 1.7.2 2.1 1.3l-.2.2c-2.7.9-4.7 3.6-5.5 5.6-.4 1-1.2 3.7.9 3.3 3.3-.6 4.9-5.3 4.4-7.6v-.7c.9-.6 1.8-1.4 2-1.4h.1c1.2-.1 3.5 1 5.2 1.1 4.2.4 6.4-2.5 9.8-1.8.3.1.5.3.8.5.3.2.4.9.2.8.2.1.1.1 0 .1zM455 132.5c0-1.8-1.3-2.8-2.8-2.8-1.5 0-2.8 1-2.8 2.8 0 1.8 1.3 2.8 2.8 2.8 1.4 0 2.7-1 2.8-2.8zm-3.3-.3v-.7h.5c.2 0 .6 0 .6.3s-.2.4-.4.4h-.7zm0 .6h.3l.7 1.3h.8l-.8-1.3c.4 0 .7-.2.7-.8 0-.7-.5-.9-1.2-.9h-1.2v3h.6v-1.3zm2.4-.3c0 1.3-.9 2.1-2 2.1s-2-.9-2-2.1c0-1.3.9-2.1 2-2.1s2 .8 2 2.1zM227.6 120.2c-1.7-4.4-6-7.5-11.1-7.5-6.6 0-11.9 5.3-11.9 11.9 0 6.6 5.3 11.9 11.9 11.9 5 0 9.3-3.1 11.1-7.5v6.8h.9v-22.5h-.9v6.9zm-3.3 12.2c-2 2-4.8 3.2-7.8 3.2s-5.8-1.2-7.8-3.2-3.2-4.8-3.2-7.8 1.2-5.8 3.2-7.8 4.8-3.2 7.8-3.2 5.8 1.2 7.8 3.2 3.2 4.8 3.2 7.8c0 3.1-1.2 5.8-3.2 7.8zM194.6 112.7c-3.4 0-5.6 1.5-6.9 3.4-.6.8-1 1.7-1.3 2.5-.3-1-.7-2-1.4-2.9-1.3-1.7-3.5-3.1-6.9-3.1-3.4 0-5.6 1.5-6.9 3.4-.4.6-.7 1.2-1 1.8v-4.6h-.9v22.5h.9v-14.2c0-1.2.5-3.3 1.7-4.9 1.2-1.7 3.1-3.1 6.2-3.1s5 1.2 6.2 2.7c1.2 1.5 1.6 3.4 1.6 4.7v14.9h.9v-14.6c.1-1.2.6-3.1 1.7-4.6 1.2-1.7 3.1-3.1 6.2-3.1s5 1.2 6.2 2.7c1.2 1.5 1.6 3.4 1.6 4.7v14.9h.9v-14.9c0-1.4-.5-3.5-1.8-5.2-1.4-1.7-3.7-3-7-3zM271.1 113.2h-1l-9.2 21.4-8.7-21.4-.9.1 9.1 22.4-3.9 9.3h.9zM282.8 126.3c-.9-1.2-2.6-2.2-5.6-3-2.5-.7-3.8-1.7-4.4-2.6-.7-.9-.7-1.7-.7-2v-.4c0-.5.1-1.7.7-2.8.7-1.1 1.9-2 4.3-2 2.6 0 3.8 1 4.5 2.1.7 1.1.7 2.3.7 2.6v.1h.9v-.1c0-.4-.1-1.8-.9-3.1s-2.4-2.5-5.2-2.5c-2.7 0-4.3 1.1-5.1 2.4-.8 1.3-.9 2.7-.9 3.3v.5c0 .4.1 1.4.9 2.5s2.3 2.2 4.9 2.9c3 .8 4.4 1.7 5.2 2.7.7 1 .8 2.2.8 3.9 0 1.3-.6 2.5-1.7 3.4-1 .9-2.5 1.5-4.1 1.5-1.3 0-2.8-.5-4-1.4-1.1-1-1.9-2.4-1.9-4.4h-.9c0 2.3.9 4 2.2 5.1 1.3 1.1 3 1.6 4.5 1.6 3.7 0 6.6-2.7 6.7-5.8 0-1.8 0-3.2-.9-4.5zM154.8 121.3l-3-9.2-3 9.2h-9.7l7.9 5.7-3 9.2 7.8-5.7 7.9 5.7-3-9.2 7.8-5.7zM270.8 111.2l1.5-1 1.4 1-.5-1.7 1.4-1h-1.8l-.5-1.7-.6 1.7h-1.8l1.5 1zM241.2 113.6c3 0 5.8 1.2 7.8 3.2 1 1 1.8 2.2 2.4 3.6h.9c-1.7-4.5-6-7.7-11.1-7.7-6.6 0-11.9 5.3-11.9 11.9 0 6.6 5.3 11.9 11.9 11.9 5 0 9.4-3.1 11.1-7.6h-.9c-.6 1.3-1.4 2.5-2.4 3.5-2 2-4.8 3.2-7.8 3.2s-5.8-1.2-7.8-3.2-3.2-4.8-3.2-7.8 1.2-5.8 3.2-7.8 4.8-3.2 7.8-3.2zM31.3 103.5c2.2 0 3.4-1 3.9-2.5l-.6-.2c-.6 1.3-1.6 2-3.2 2-2.5 0-4-1.7-4-4.4v-.2h7.9v-.6c0-2.2-1.4-4.4-4.2-4.4-2.8 0-4.6 2.1-4.6 5.2 0 2.9 1.8 5.1 4.8 5.1zm-.2-9.7c1.6 0 3.2 1 3.3 3.5h-6.9c.3-2.1 1.6-3.5 3.6-3.5zm43.8-2.8c.5 0 .9-.4.9-.9s-.4-.9-.9-.9-.9.4-.9.9c.1.6.4.9.9.9zm-46.4 28.5c0 1.5 1.1 2.5 2.9 2.5 1.6 0 2.9-.8 3.7-1.6.2.9.8 1.3 1.6 1.3.9 0 1.5-.5 1.7-1.5l-.5-.2c-.2.6-.5.9-1 .9-.7 0-1-.4-1-1.6v-4.3c0-2-.8-3.4-3.4-3.4-1.5 0-2.4.5-3 1-.5.5-.7.9-.7 1.2 0 .3.2.6.6.6.5 0 .5-.5.8-1 .3-.6.9-1 2.3-1 1.6 0 2.5.9 2.5 2.6v1.1c-4.1-.1-6.5 1.1-6.5 3.4zm6.6.1c-.7.8-2.1 1.6-3.5 1.6-1.2 0-2.1-.6-2.1-1.7 0-1.4 1.2-2.7 5.7-2.8v2.9zm14.1-14.7c0 1.5 1.4 2.8 4.4 2.8 3.1 0 4.7-1.3 4.7-3 0-1.9-2.2-2.4-4.4-2.6-1.6-.1-3.1-.2-3.1-1 0-.4.4-.8 2.2-.8h.7c2.4 0 3.9-1.6 3.9-3.7 0-.9-.4-1.8-1-2.5.1-1.8 1.7-.9 1.7-1.8 0-.4-.2-.6-.6-.6-.9 0-1.6.9-1.7 1.9-.6-.4-1.3-.6-2.2-.6-2.4 0-4 1.6-4 3.7 0 1.5.8 2.6 1.8 3.2-1.1.1-1.6.7-1.6 1.4 0 .5.3 1 1.2 1.3-1.2.3-2 1.3-2 2.3zm1.5-8.2c0-1.6 1.2-2.9 3-2.9 1.7 0 2.9 1.3 2.9 3 0 1.5-1.1 2.9-3 2.9-1.7 0-2.9-1.4-2.9-3zm1.6 6.2l2 .2c2.3.2 3 .9 3 1.7 0 1.2-1.2 2.1-3.7 2.1-2.2 0-3.5-.9-3.5-2.1 0-.8.8-1.7 2.2-1.9zm4 8.6c-2.8 0-4.6 2.2-4.6 5.3 0 3.1 1.6 5.1 4.4 5.1 1.5 0 2.8-.7 3.4-1.9v1.7h.1l3.1-.3v-.4h-2.2v-14.2l-.5-.2c-.9 1.1-1.9 1.7-3.1 1.7v.4c.9.2 2 0 2.7-.5v4.8c-.9-.9-2-1.5-3.3-1.5zm3.1 7.4c-.5 1.4-1.7 2.2-3.2 2.2-2.2 0-3.6-1.7-3.6-4.4 0-2.6 1.5-4.5 3.8-4.5 1.3 0 2.5.7 3 1.8v4.9zm-20.8-24.4v7.8l-2.4.2v.6h5.6v-.6l-2.3-.2v-6.1c.8-1.4 2.2-2.4 3.8-2.4 1.6 0 2.4 1 2.4 2.6v5.8l-2.3.2v.6h5.4v-.6l-2.1-.2v-5.9c0-1.8-.9-3.4-3.2-3.4-1.7 0-3.2.9-4 2.3v-2.1l-.5-.1c-.8.9-1.9 1.3-3.2 1.3v.4c1 .2 2 .2 2.8-.2zm22.1 0v5.6c0 1.8.9 3.4 3.2 3.4 1.7 0 3.1-.9 4-2.2v2h.1l3.1-.3v-.5h-2.2v-9.3l-.5-.2c-.9.9-1.9 1.3-3.2 1.3v.4c.9.2 1.9.2 2.7-.2v5.9c-.8 1.3-2.3 2.3-3.8 2.3s-2.4-1-2.4-2.6v-6.9l-.5-.2c-.8.9-1.7 1.3-2.9 1.3v.4c.8.2 1.7.2 2.4-.2zm-11.1 35.6l-.6-.1c-.9.9-1.9 1.3-3.2 1.3v.4c.9.2 1.9.2 2.7-.2v5.9c-.8 1.3-2.3 2.3-3.8 2.3s-2.4-1-2.4-2.6v-6.9l-.5-.2c-.8.9-1.7 1.3-2.9 1.3v.4c.8.2 1.7.2 2.5-.2v5.6c0 1.8.9 3.4 3.2 3.4 1.7 0 3.1-.9 4-2.2v2h.1l3.1-.3v-.5h-2.2v-9.4zm17.7-18.6c-2.9 0-4.8 2.1-4.8 5.2s1.9 5.2 4.8 5.2 4.8-2.1 4.8-5.2-1.9-5.2-4.8-5.2zm0 9.7c-2.3 0-3.8-1.8-3.8-4.4 0-2.7 1.5-4.4 3.8-4.4s3.8 1.8 3.8 4.4c0 2.6-1.5 4.4-3.8 4.4zm-.7 8.8c-2.8 0-4.6 2.1-4.6 5.2s1.9 5.2 4.8 5.2c2.2 0 3.4-1 3.9-2.5l-.6-.2c-.6 1.3-1.6 2-3.2 2-2.5 0-4-1.7-4-4.4v-.3h7.9v-.6c0-2.2-1.4-4.4-4.2-4.4zm-3.6 4.3c.3-2.1 1.6-3.5 3.6-3.5 1.6 0 3.2 1 3.3 3.5h-6.9zm9.1-31.8v.6h5.6v-.6l-2.3-.2v-9.1l-.5-.2c-.9.9-1.9 1.3-3.2 1.3v.4c.9.2 2 .1 2.7-.3v7.9l-2.3.2zm17 12.3c0-1.8-.8-3.3-2.8-3.3-1.6 0-2.9.8-3.7 2.2-.3-1.2-1.1-2.2-2.7-2.2-1.4 0-2.8.9-3.6 2.2v-2.1l-.6-.2c-.8.9-1.9 1.3-3.2 1.3v.4c.9.2 2 .1 2.7-.3v7.9l-2.4.2v.6h5.2v-.5l-1.8-.2v-6.2c.8-1.3 2-2.3 3.4-2.3 1.6 0 2.1 1.1 2.1 2.7v5.7l-1.9.2v.6h4.9v-.5l-2-.2v-6.300000000000001c.8-1.4 2-2.2 3.3-2.2 1.6 0 2.1 1.1 2.1 2.7v5.8l-1.8.2v.6h4.9v-.6l-2.2-.2v-6zm-32.5 19.9c-1.3-.3-2.9-.8-2.9-2.2 0-.9.7-1.8 2.4-1.8 1.5 0 2.3.7 3 1.9l.6 1.1.5-.1-.6-3.7h-.5v1.6c-.6-.9-1.5-1.6-3.1-1.6-2 0-3.2 1.1-3.2 2.6 0 2 2.3 2.6 3.6 3 1.9.5 3.1.9 3.1 2.3 0 1.2-1 1.9-2.5 1.9-1.6 0-2.6-.8-3.5-2.4l-.6-1-.5.1.7 3.9h.6l-.1-1.9c.8 1.2 1.9 2 3.6 2 2 0 3.3-1.1 3.3-2.7 0-1.9-1.7-2.5-3.9-3zm32.6-32.4v-5.9c0-1.8-.9-3.4-3.2-3.4-1.7 0-3.1.9-4 2.3v-2.1l-.6-.2c-.8.9-1.9 1.3-3.2 1.3v.4c.9.2 2 .2 2.7-.2v7.8l-2.4.2v.6h5.6v-.6l-2.3-.2v-6.1c.8-1.4 2.2-2.4 3.8-2.4 1.6 0 2.4 1 2.4 2.6v5.8l-2.3.2v.6h5.4v-.6l-1.9-.1zm-68.5 18.6l-3.1-.2v-5.1h4.1l2.9 5.9h3.6v-.6l-2.9-.3-2.5-5c2.3-.1 3.7-1.8 3.7-3.9 0-2.2-1.5-3.8-3.9-3.8h-8.9v.6l2.9.2v12l-2.9.2v.6h7v-.6zm-3.1-12.2h4.6c2 0 3.2 1.2 3.2 3s-1 3.1-3.2 3.1h-4.6v-6.1zm21.2 12.3v.6h5.6v-.6l-2.3-.2v-6.1c.8-1.4 2.2-2.4 3.8-2.4s2.4 1 2.4 2.6v5.8l-2.3.2v.6h5.4v-.5l-2.1-.2v-5.9c0-1.8-.9-3.3-3.2-3.3-1.7 0-3.2.9-4 2.2v-2.1l-.6-.2c-.8.9-1.9 1.3-3.2 1.3v.4c.9.2 2 .2 2.7-.2v7.8l-2.2.2zm-18.1-18.5l-3.1-.2v-4.8h4.7c2.5 0 3.9-1.7 3.9-4.1 0-2.3-1.5-3.9-4-3.9h-8.5v.5l2.9.2v12l-2.9.2v.6h7v-.5zm-3.1-12.3h4.4c1.9 0 3.1 1.2 3.1 3.1 0 1.9-1 3.3-3 3.3h-4.5v-6.4zm8.8 37l2.9-.2v-.6h-6.9v.6l2.9.2v5.3h-7.7v-5.3l2.9-.2v-.6h-6.9v.6l2.9.2v12l-2.9.2v.6h6.9v-.6l-2.9-.2v-5.9h7.7v5.9l-2.9.2v.6h6.9v-.6l-2.9-.2v-12zm7.6 2.8c-2.9 0-4.8 2.1-4.8 5.2s1.9 5.2 4.8 5.2 4.8-2.1 4.8-5.2-1.9-5.2-4.8-5.2zm0 9.6c-2.3 0-3.8-1.8-3.8-4.4 0-2.7 1.5-4.4 3.8-4.4s3.8 1.8 3.8 4.4c0 2.7-1.5 4.4-3.8 4.4z"/><path fill="#1A1A1A" d="M0 140h1v-50.6h-1v25.3zM103.9 140h1v-50.6h-1v25.3z"/></svg>