<svg xmlns="http://www.w3.org/2000/svg" width="91" height="360" viewBox="0 0 91 360"><g fill="#757575"><path d="M22.252 131.128c.047.143.095.189.237.285.143.095.855.237 1.141.237.997 0 1.521-.143 1.9-.476.428-.332.76-.854.76-1.567 0-1.568-1.045-2.471-3.658-2.471h-1.663c-.048-.998-.095-1.901-.048-2.852 4.467.048 5.227-1.045 5.227-2.661 0-.569-.237-.902-.522-1.188-.237-.285-.713-.428-1.378-.428-.475 0-1.235.19-1.567.428-.096.048-.143.143-.143.237l-.523 2.376-3.563-.237c.048-1.711.095-3.231.19-4.752 1.758-.57 3.801-.902 6.271-.902 2.281 0 4.134.237 5.18 1.045.902.713 1.663 1.759 1.663 2.898 0 1.901-1.235 3.279-3.611 3.896v.237c2.708.428 3.943 2.328 3.943 3.991 0 1.854-.95 3.089-2.186 3.896s-3.278 1.378-6.557 1.378c-1.806 0-3.231-.047-4.8-.38-.237-1.663-.38-3.326-.522-5.132 1.235-.189 2.424-.38 3.659-.522l.57 2.664zM27.191 147.188c2.804-4.42 5.75-9.123 8.553-13.59 3.041-5.037 6.51-10.929 10.169-17.011 1.14.475 2.423 1.188 3.421 1.9-3.706 6.034-7.508 12.164-10.358 16.916-2.566 4.039-6.272 9.931-8.601 13.542-.998-.521-2.091-1.045-3.184-1.757zM44.393 145.335l4.324-.048c.047 0 .096-.095.096-.189v-9.076c-1.379.19-2.757.381-4.42.618-.143-.998-.285-1.948-.428-2.804 3.516-.95 9.504-2.993 10.168-2.993.049 0 .049 0 .049.143 0 4.039 0 9.883-.049 14.302l3.945.048-.049 2.756h-13.684c0-.857 0-1.855.048-2.757zM65.488 138.303c1.045-.57 2.092-.903 3.658-.903 1.996 0 3.09.618 3.803 1.331.854.855 1.566 2.28 1.566 3.516 0 1.996-.76 3.517-2.043 4.609s-3.135 1.568-5.273 1.568c-1.949 0-3.801-.381-5.084-1.521-1.33-1.094-2.377-2.946-2.377-6.13 0-2.139.713-5.18 2.756-7.27 1.475-1.474 3.754-2.424 6.844-2.424 1.566 0 2.564.143 3.42.38.238 1.378.428 2.852.523 4.372-1.094.189-2.377.428-3.516.57l-.619-1.996c-.047-.143-.094-.237-.189-.285-.189-.095-.475-.143-.76-.143-.477 0-1.188.19-1.615.713-.619.76-1.047 1.948-1.236 3.611h.142zm3.184 6.984c.381-.617.428-1.33.428-2.186 0-.902-.189-1.711-.617-2.233-.285-.332-.713-.475-1.188-.475-.57 0-1.332.332-1.902.902-.047 1.9.285 3.136.713 3.849.285.523.855.761 1.332.761.425 0 1.044-.19 1.234-.618z"/></g><g fill="#757575"><path d="M17.672 312.062c0-4.275 3.193-9.118 7.418-11.076.721.773 1.494 1.752 2.111 2.628-3.039 2.215-3.76 3.915-3.76 5.46 0 1.958 1.751 2.524 2.987 2.885.412 2.988-1.545 5.307-4.069 5.307-2.576-.001-4.687-2.578-4.687-5.204zm11.178 0c0-4.275 3.143-9.118 7.418-11.076.773.824 1.443 1.752 2.061 2.628-2.987 2.215-3.709 3.915-3.709 5.46 0 2.01 1.804 2.524 2.937 2.885.36 3.039-1.493 5.307-4.069 5.307-2.526-.001-4.638-2.578-4.638-5.204zM58.779 318.655c-1.082.309-2.936.463-3.709.463-.463-5.048-1.133-12.054-1.648-15.66 1.648-.566 5.666-.927 6.49-.875-.308 3.657-1.029 12.775-1.133 16.072zm10.149 0c-1.031.309-2.885.463-3.658.463-.463-5.048-1.184-12.105-1.648-15.66 1.598-.566 5.615-.927 6.439-.875-.258 3.657-.979 12.775-1.133 16.072z"/></g><path fill-rule="evenodd" clip-rule="evenodd" fill="#D6D6D6" d="M68.055 21.082l-9.715 5.833v-6.561l-6.733 8.14v-8.867l-5.998 10.21-5.998-10.21v8.867l-6.731-8.14v6.561l-9.716-5.833 1.455 6.184 14.992 4.322v39.358l3.647 2.037.633.091h3.437l.633-.091 3.646-2.037v-39.358l14.993-4.322z"/><g fill="#757575"><path fill-rule="evenodd" clip-rule="evenodd" d="M12.9 23.579l30.366 7.776v41.628l-30.366-7.777zM78.318 23.579l-30.365 7.776v41.628l30.365-7.777z"/><path d="M43.891 31.403h3.438v41.671h-3.438z"/></g><g fill="#757575"><path d="M18.452 196.61h32.501v8.125h-32.501zM54.203 196.61h13v8.125h-13zM70.453 196.61h20.163v8.125h-20.163zM18.452 212.21h13v8.125h-13zM34.702 212.21h39.001v8.125h-39.001zM76.953 212.21h13.663v8.125h-13.663zM18.452 227.811h19.5v8.125h-19.5z"/></g><g stroke-miterlimit="10" fill="none"><path stroke="#fff" stroke-width="4" d="M40.54 221.057l-24.804 24.804"/><path stroke="#757575" stroke-width="2" d="M40.54 221.057l-24.804 24.804"/><circle stroke="#fff" stroke-width="4" cx="28.138" cy="233.46" r="17.861"/><circle stroke="#757575" stroke-width="2" cx="28.138" cy="233.46" r="17.861"/></g></svg>